<svg width="1613" height="1203" viewBox="0 0 1613 1203" fill="none" xmlns="http://www.w3.org/2000/svg">
<g clip-path="url(#clip0_365_923)">
<path d="M710.792 224.19H189.012V867.62H710.792V224.19Z" fill="white"/>
<path d="M710.801 219.38H189.011C188.38 219.38 187.755 219.505 187.172 219.747C186.589 219.989 186.059 220.343 185.613 220.79C185.167 221.237 184.814 221.767 184.573 222.35C184.333 222.934 184.21 223.559 184.211 224.19V867.61C184.211 868.883 184.717 870.104 185.617 871.004C186.517 871.905 187.738 872.41 189.011 872.41H710.801C712.074 872.41 713.295 871.905 714.195 871.004C715.095 870.104 715.601 868.883 715.601 867.61V224.19C715.602 223.559 715.479 222.934 715.238 222.35C714.998 221.767 714.644 221.237 714.199 220.79C713.753 220.343 713.223 219.989 712.64 219.747C712.057 219.505 711.432 219.38 710.801 219.38V219.38ZM705.991 862.81H193.811V228.99H705.991V862.81Z" fill="#3527DD"/>
<path d="M755.61 179.37H233.83V822.8H755.61V179.37Z" fill="#E07F7F"/>
<path d="M362.671 221.78C361.398 221.78 360.177 221.274 359.277 220.374C358.377 219.474 357.871 218.253 357.871 216.98V144.98C357.871 143.707 358.377 142.486 359.277 141.586C360.177 140.686 361.398 140.18 362.671 140.18C363.944 140.18 365.165 140.686 366.065 141.586C366.965 142.486 367.471 143.707 367.471 144.98V216.98C367.472 217.611 367.349 218.236 367.108 218.819C366.868 219.402 366.514 219.931 366.068 220.377C365.622 220.823 365.093 221.177 364.51 221.417C363.927 221.658 363.302 221.781 362.671 221.78V221.78Z" fill="#201000"/>
<path d="M495.921 221.78C494.648 221.78 493.427 221.274 492.527 220.374C491.627 219.474 491.121 218.253 491.121 216.98V144.98C491.121 143.707 491.627 142.486 492.527 141.586C493.427 140.686 494.648 140.18 495.921 140.18C497.194 140.18 498.415 140.686 499.315 141.586C500.215 142.486 500.721 143.707 500.721 144.98V216.98C500.721 217.611 500.597 218.235 500.356 218.817C500.114 219.399 499.761 219.929 499.315 220.374C498.87 220.82 498.34 221.174 497.758 221.415C497.176 221.656 496.551 221.78 495.921 221.78V221.78Z" fill="#201000"/>
<path d="M629.171 221.78C628.54 221.782 627.915 221.659 627.331 221.418C626.748 221.177 626.218 220.824 625.771 220.378C625.324 219.932 624.97 219.403 624.728 218.82C624.486 218.237 624.361 217.612 624.361 216.98V144.98C624.418 143.744 624.949 142.577 625.844 141.722C626.739 140.867 627.929 140.39 629.166 140.39C630.404 140.39 631.594 140.867 632.489 141.722C633.384 142.577 633.915 143.744 633.971 144.98V216.98C633.971 218.253 633.466 219.474 632.565 220.374C631.665 221.275 630.444 221.78 629.171 221.78V221.78Z" fill="#201000"/>
<path d="M569.141 406.65H343.521C342.248 406.65 341.027 406.145 340.127 405.244C339.226 404.344 338.721 403.123 338.721 401.85C338.721 400.577 339.226 399.356 340.127 398.456C341.027 397.556 342.248 397.05 343.521 397.05H569.141C570.414 397.05 571.635 397.556 572.535 398.456C573.435 399.356 573.941 400.577 573.941 401.85C573.941 403.123 573.435 404.344 572.535 405.244C571.635 406.145 570.414 406.65 569.141 406.65V406.65Z" fill="white"/>
<path d="M601.961 596.32H343.521C342.872 596.35 342.223 596.247 341.615 596.019C341.006 595.791 340.449 595.442 339.979 594.993C339.509 594.544 339.135 594.004 338.88 593.406C338.624 592.809 338.492 592.165 338.492 591.515C338.492 590.865 338.624 590.222 338.88 589.624C339.135 589.026 339.509 588.486 339.979 588.037C340.449 587.588 341.006 587.239 341.615 587.011C342.223 586.783 342.872 586.68 343.521 586.71H601.961C603.198 586.766 604.365 587.297 605.22 588.192C606.075 589.087 606.552 590.277 606.552 591.515C606.552 592.753 606.075 593.943 605.22 594.838C604.365 595.733 603.198 596.264 601.961 596.32Z" fill="white"/>
<path d="M614.762 447.46C613.907 447.463 613.067 447.237 612.329 446.806C611.591 446.375 610.982 445.755 610.565 445.009C610.148 444.263 609.937 443.42 609.956 442.565C609.975 441.711 610.222 440.877 610.672 440.15L656.282 365.73C656.6 365.172 657.027 364.683 657.537 364.293C658.048 363.903 658.631 363.619 659.253 363.459C659.876 363.298 660.524 363.264 661.159 363.359C661.795 363.454 662.405 363.675 662.953 364.01C663.502 364.345 663.977 364.786 664.352 365.308C664.726 365.83 664.992 366.422 665.134 367.049C665.276 367.676 665.29 368.324 665.176 368.957C665.062 369.589 664.823 370.192 664.472 370.73L618.852 445.15C618.426 445.855 617.826 446.438 617.11 446.842C616.393 447.247 615.584 447.46 614.762 447.46V447.46Z" fill="#3527DD"/>
<path d="M726.8 239.39C723.041 239.389 719.29 239.024 715.6 238.3C713.97 237.97 712.36 237.58 710.79 237.12C709.22 236.66 707.55 236.12 705.99 235.5C701.69 233.828 697.607 231.642 693.83 228.99C691.723 227.529 689.719 225.925 687.83 224.19C686.182 222.682 684.626 221.075 683.17 219.38C674.125 208.94 669.154 195.584 669.17 181.77C669.17 180.97 669.17 180.16 669.23 179.37H659.62C659.62 180.17 659.57 180.97 659.57 181.77C659.551 195.18 663.569 208.285 671.1 219.38C672.22 221.04 673.42 222.65 674.68 224.19C675.94 225.73 677.48 227.46 678.99 228.99C686.527 236.636 695.785 242.366 705.99 245.7C707.557 246.22 709.157 246.677 710.79 247.07C712.37 247.46 713.98 247.79 715.6 248.07C729.188 250.367 743.154 248.426 755.6 242.51V231.65C746.853 236.729 736.916 239.399 726.8 239.39V239.39Z" fill="white"/>
<path d="M900.801 272.43C866.141 272.43 835.411 272.32 832.671 272.31C831.405 272.305 830.192 271.799 829.297 270.904C828.401 270.009 827.896 268.796 827.891 267.53L827.221 106.68C827.218 105.405 827.721 104.181 828.618 103.276C829.516 102.371 830.736 101.858 832.011 101.85C847.551 101.79 890.231 99.65 900.911 90.68C905.181 87.09 912.541 73.52 919.651 60.41C936.291 29.7 955.121 -5.14002 974.651 0.629976C976.613 1.20235 978.414 2.22307 979.914 3.61148C981.413 4.9999 982.569 6.71797 983.291 8.62998C990.861 27.04 967.511 75.29 957.671 94.21C972.811 94.3 989.111 95.01 1002.95 98.43C1024.44 103.74 1035.36 114.59 1035.43 130.67C1035.43 141.93 1028.89 149.48 1021.62 154.09C1028.62 157.67 1035.07 163.82 1035.62 173.64C1035.77 175.926 1035.46 178.219 1034.7 180.378C1033.93 182.538 1032.74 184.519 1031.18 186.2C1028.83 188.663 1025.99 190.611 1022.84 191.92C1029.84 195.92 1036.54 202.32 1036.59 212.29C1036.59 221.65 1031.26 227.43 1024.86 230.79C1026.81 232.562 1028.37 234.724 1029.43 237.136C1030.48 239.548 1031.02 242.156 1031.01 244.79C1031.01 257.1 1019.84 270.51 1001.09 271.63C989.901 272.28 942.521 272.43 900.801 272.43ZM837.521 262.72C863.001 262.81 982.521 263.1 1000.52 262.02C1014.95 261.16 1021.42 251.42 1021.41 244.78C1021.41 238.85 1016.95 235.2 1009.19 234.78C1007.96 234.714 1006.8 234.175 1005.95 233.275C1005.1 232.375 1004.64 231.182 1004.65 229.947C1004.66 228.711 1005.14 227.527 1006 226.641C1006.87 225.755 1008.04 225.235 1009.27 225.19C1009.98 225.19 1027.04 224.25 1026.99 212.31C1026.94 199.91 1005.44 195.55 1005.22 195.51C1004.06 195.298 1003.01 194.663 1002.28 193.726C1001.56 192.789 1001.21 191.617 1001.29 190.435C1001.38 189.254 1001.9 188.146 1002.75 187.325C1003.61 186.505 1004.74 186.029 1005.92 185.99C1009.51 185.85 1019.78 184.45 1024.11 179.69C1024.81 178.954 1025.34 178.079 1025.67 177.122C1026 176.166 1026.13 175.149 1026.04 174.14C1025.36 161.59 1007.23 159.56 1007.04 159.54C1005.88 159.457 1004.78 158.953 1003.97 158.121C1003.15 157.29 1002.66 156.189 1002.6 155.024C1002.53 153.86 1002.9 152.712 1003.62 151.796C1004.34 150.88 1005.37 150.259 1006.52 150.05C1007.29 149.88 1025.84 145.8 1025.78 130.66C1025.78 119.4 1017.5 111.89 1000.61 107.71C985.351 103.94 966.251 103.71 949.611 103.77C948.775 103.771 947.954 103.555 947.228 103.141C946.502 102.728 945.896 102.132 945.471 101.413C945.046 100.694 944.816 99.8762 944.803 99.0409C944.791 98.2055 944.997 97.3814 945.401 96.65C959.481 71.05 979.801 25.49 974.351 12.24C974.169 11.6656 973.847 11.1454 973.414 10.7264C972.981 10.3074 972.451 10.0028 971.871 9.84C959.781 6.32 939.961 43.04 928.061 64.98C919.491 80.78 912.731 93.27 907.061 98.03C893.851 109.13 851.801 111.03 836.811 111.39L837.521 262.72Z" fill="#E07F7F"/>
<path d="M957.521 271.8C957.283 271.8 957.046 271.78 956.811 271.74C952.933 271.15 949.214 269.783 945.877 267.721C942.54 265.659 939.654 262.945 937.391 259.74C935.766 257.409 934.657 254.758 934.14 251.964C933.623 249.17 933.708 246.298 934.391 243.54C939.071 224.48 967.871 224.86 993.281 225.21C999.071 225.29 1004.54 225.37 1009.28 225.21C1010.55 225.162 1011.79 225.622 1012.73 226.488C1013.66 227.355 1014.21 228.557 1014.26 229.83C1014.31 231.103 1013.85 232.343 1012.98 233.277C1012.12 234.211 1010.91 234.762 1009.64 234.81C1004.64 234.99 999.101 234.92 993.191 234.81C973.561 234.55 946.621 234.18 943.761 245.81C943.41 247.273 943.378 248.796 943.667 250.273C943.957 251.75 944.562 253.148 945.441 254.37C946.958 256.468 948.875 258.244 951.083 259.597C953.29 260.95 955.744 261.851 958.301 262.25C959.503 262.425 960.593 263.048 961.353 263.994C962.113 264.941 962.486 266.14 962.398 267.351C962.309 268.561 961.765 269.693 960.875 270.519C959.985 271.344 958.815 271.802 957.601 271.8H957.521Z" fill="#E07F7F"/>
<path d="M954.99 235.79C954.75 235.81 954.51 235.81 954.27 235.79C946.89 234.69 939.11 229.32 934.45 222.11C930.66 216.24 929.45 209.89 931.05 204.21C936.12 186.21 965.5 186.21 991.42 186.21C996.59 186.21 1001.51 186.21 1005.86 186.05C1006.49 186.027 1007.12 186.128 1007.71 186.348C1008.3 186.568 1008.84 186.903 1009.31 187.332C1009.77 187.762 1010.14 188.278 1010.4 188.852C1010.67 189.425 1010.81 190.045 1010.83 190.675C1010.86 191.305 1010.76 191.934 1010.54 192.525C1010.32 193.116 1009.98 193.658 1009.55 194.12C1009.12 194.582 1008.61 194.955 1008.03 195.218C1007.46 195.48 1006.84 195.627 1006.21 195.65C1001.76 195.81 996.72 195.81 991.42 195.82C971.15 195.82 943.42 195.82 940.3 206.82C939.16 210.82 941.2 214.82 942.52 216.9C945.65 221.75 951.07 225.61 955.69 226.3C956.891 226.475 957.982 227.098 958.742 228.045C959.502 228.991 959.875 230.19 959.786 231.401C959.697 232.612 959.153 233.744 958.263 234.569C957.373 235.395 956.204 235.852 954.99 235.85V235.79Z" fill="#E07F7F"/>
<path d="M954.831 197.98C954.36 197.982 953.892 197.915 953.441 197.78C927.571 189.93 929.061 173.89 930.891 167.35C935.891 149.49 968.251 149.69 996.671 149.83C1002.57 149.83 1008.15 149.9 1012.67 149.73C1013.3 149.706 1013.93 149.807 1014.52 150.026C1015.11 150.246 1015.65 150.58 1016.12 151.009C1016.58 151.438 1016.95 151.953 1017.22 152.527C1017.48 153.1 1017.63 153.72 1017.65 154.35C1017.67 154.98 1017.57 155.609 1017.35 156.201C1017.13 156.792 1016.8 157.334 1016.37 157.797C1015.94 158.259 1015.43 158.633 1014.85 158.896C1014.28 159.159 1013.66 159.306 1013.03 159.33C1008.27 159.5 1002.59 159.48 996.581 159.44C976.581 159.32 943.141 159.14 940.101 169.95C937.731 178.36 943.101 184.63 956.181 188.59C957.279 188.926 958.221 189.645 958.834 190.616C959.448 191.587 959.693 192.746 959.525 193.883C959.356 195.019 958.786 196.058 957.918 196.809C957.049 197.561 955.939 197.977 954.791 197.98H954.831Z" fill="#E07F7F"/>
<path d="M949.88 161.39C949.639 161.39 949.398 161.37 949.16 161.33C941.25 160.15 933.47 155.27 929.35 148.9C927.78 146.593 926.734 143.971 926.285 141.218C925.835 138.464 925.994 135.645 926.75 132.96C931.82 114.96 961.19 114.96 987.11 114.96C992.29 114.96 997.21 114.96 1001.56 114.8C1002.83 114.752 1004.07 115.212 1005.01 116.078C1005.94 116.945 1006.49 118.147 1006.54 119.42C1006.59 120.693 1006.13 121.933 1005.26 122.867C1004.4 123.801 1003.19 124.352 1001.92 124.4C997.46 124.56 992.41 124.57 987.11 124.57C966.85 124.57 939.11 124.57 936 135.57C935.619 136.943 935.548 138.384 935.792 139.788C936.035 141.193 936.588 142.525 937.41 143.69C938.949 145.861 940.907 147.702 943.169 149.103C945.431 150.505 947.951 151.439 950.58 151.85C951.782 152.024 952.872 152.648 953.632 153.594C954.392 154.541 954.765 155.74 954.676 156.951C954.588 158.161 954.044 159.293 953.154 160.119C952.264 160.944 951.094 161.402 949.88 161.4V161.39Z" fill="#E07F7F"/>
<path d="M319.45 730.77H110.58V939.64H319.45V730.77Z" fill="white"/>
<path d="M319.459 944.44H110.579C109.306 944.44 108.085 943.934 107.185 943.034C106.285 942.134 105.779 940.913 105.779 939.64V730.76C105.779 729.487 106.285 728.266 107.185 727.366C108.085 726.466 109.306 725.96 110.579 725.96H319.459C320.732 725.96 321.953 726.466 322.853 727.366C323.754 728.266 324.259 729.487 324.259 730.76V939.64C324.259 940.913 323.754 942.134 322.853 943.034C321.953 943.934 320.732 944.44 319.459 944.44ZM115.379 934.84H314.659V735.57H115.379V934.84Z" fill="#201000"/>
<path d="M213.82 898.82C213.14 898.821 212.467 898.676 211.846 898.397C211.225 898.118 210.671 897.71 210.22 897.2L155 834.78C154.583 834.307 154.262 833.757 154.057 833.16C153.852 832.564 153.767 831.933 153.806 831.303C153.885 830.032 154.465 828.843 155.42 828C156.375 827.157 157.626 826.727 158.897 826.806C160.169 826.885 161.357 827.465 162.2 828.42L212.78 885.6L274.38 766.96C274.968 765.83 275.98 764.98 277.194 764.596C278.409 764.213 279.725 764.328 280.855 764.915C281.985 765.502 282.835 766.515 283.219 767.729C283.602 768.943 283.488 770.26 282.9 771.39L218.08 896.24C217.72 896.93 217.198 897.522 216.559 897.966C215.92 898.41 215.182 898.693 214.41 898.79C214.214 898.81 214.017 898.82 213.82 898.82V898.82Z" fill="#1282A2"/>
<path d="M161.99 179.98L137.99 153.57C133.82 148.98 126.99 155.79 131.2 160.36L155.2 186.77C159.37 191.35 166.15 184.54 161.99 179.98Z" fill="#3527DD"/>
<path d="M44.8106 1039.05L21.1706 1012.31C17.0706 1007.67 10.3006 1014.48 14.3806 1019.1L38.0206 1045.84C42.1206 1050.51 48.8906 1043.69 44.8106 1039.05Z" fill="#3527DD"/>
<path d="M29.9497 1068.29L8.33976 1049.05C3.72976 1044.96 -3.08025 1051.73 1.54976 1055.84L23.1598 1075.05C27.7598 1079.17 34.5797 1072.41 29.9497 1068.29Z" fill="#3527DD"/>
<path d="M1464.7 619.85L1443.25 648.78C1439.57 653.78 1447.9 658.54 1451.55 653.62L1472.99 624.69C1476.68 619.73 1468.34 614.93 1464.7 619.85Z" fill="#E07F7F"/>
<path d="M1474.26 706.76C1470.46 706.75 1466.75 705.615 1463.6 703.499C1460.45 701.382 1457.99 698.378 1456.55 694.867C1455.1 691.356 1454.73 687.495 1455.47 683.772C1456.22 680.049 1458.06 676.631 1460.74 673.949C1463.43 671.268 1466.86 669.443 1470.58 668.706C1474.31 667.969 1478.17 668.352 1481.67 669.807C1485.18 671.263 1488.18 673.725 1490.29 676.883C1492.39 680.041 1493.52 683.753 1493.52 687.55C1493.52 690.076 1493.02 692.577 1492.05 694.91C1491.08 697.243 1489.66 699.362 1487.87 701.146C1486.08 702.93 1483.96 704.344 1481.62 705.307C1479.29 706.27 1476.79 706.764 1474.26 706.76V706.76ZM1474.26 677.95C1472.36 677.952 1470.51 678.517 1468.93 679.573C1467.35 680.629 1466.12 682.129 1465.4 683.883C1464.67 685.638 1464.48 687.568 1464.86 689.429C1465.23 691.291 1466.14 693 1467.48 694.342C1468.83 695.684 1470.54 696.597 1472.4 696.967C1474.26 697.336 1476.19 697.145 1477.95 696.419C1479.7 695.692 1481.2 694.461 1482.25 692.883C1483.31 691.304 1483.87 689.449 1483.87 687.55C1483.87 685.003 1482.85 682.562 1481.05 680.761C1479.25 678.961 1476.81 677.95 1474.26 677.95Z" fill="#E07F7F"/>
<path d="M28.9498 622.73C28.1453 622.728 27.3543 622.524 26.6491 622.136C25.944 621.749 25.3472 621.191 24.9134 620.514C24.4796 619.836 24.2227 619.061 24.1662 618.258C24.1097 617.456 24.2553 616.652 24.5898 615.92L106.22 438.26C106.467 437.665 106.832 437.125 107.293 436.673C107.754 436.222 108.301 435.868 108.901 435.633C109.502 435.397 110.144 435.285 110.788 435.304C111.433 435.322 112.068 435.47 112.654 435.739C113.24 436.008 113.766 436.392 114.201 436.869C114.635 437.346 114.969 437.905 115.182 438.514C115.396 439.123 115.484 439.768 115.442 440.412C115.401 441.055 115.23 441.684 114.94 442.26L33.3198 619.93C32.9354 620.766 32.3194 621.474 31.5449 621.97C30.7703 622.467 29.8697 622.73 28.9498 622.73Z" fill="#3527DD"/>
<path d="M1130.73 756.05C1130.19 756.05 1129.65 756.05 1129.12 756.05C1107.97 755.25 1090.35 738.75 1080.78 710.78L1069.06 663.3C1056.97 664.43 1023.59 664.75 1001.7 637.57C984.239 615.88 996.969 574.82 1013.1 522.84C1021.71 495.03 1031.49 463.52 1036.72 432.91C1036.75 432.714 1036.8 432.521 1036.86 432.33C1044.15 408.33 1060.22 393.16 1083.34 388.39C1123.27 380.17 1172.91 404.71 1196.08 432.14C1218.51 458.69 1228.38 496.48 1222.47 533.24C1211.03 604.37 1173.17 629.64 1160.58 636.24L1182.77 712.73C1183.08 713.797 1183.01 714.939 1182.57 715.96C1172.04 740.42 1151.82 756.05 1130.73 756.05ZM1072.73 653.16C1073.8 653.162 1074.84 653.524 1075.69 654.187C1076.53 654.85 1077.13 655.777 1077.39 656.82L1090.02 708.05C1098.23 732.05 1112.3 745.78 1129.51 746.42C1146.72 747.06 1163.71 734.27 1173.09 713.66L1150.24 634.9C1149.9 633.741 1150.01 632.498 1150.55 631.418C1151.09 630.338 1152.01 629.499 1153.14 629.07C1153.6 628.9 1200.45 609.81 1213.02 531.68C1218.49 497.68 1209.43 462.75 1188.78 438.3C1167.28 412.86 1120.55 390.49 1085.32 397.77C1065.66 401.82 1052.49 414.28 1046.17 434.77C1040.81 465.9 1030.98 497.62 1022.3 525.61C1007.63 572.92 994.959 613.77 1009.21 631.48C1032.21 660.06 1071.48 653.28 1071.86 653.2C1072.14 653.15 1072.42 653.123 1072.7 653.12L1072.73 653.16Z" fill="#201000"/>
<path d="M1217.73 532.4C1206.73 600.92 1167.73 631.76 1155.95 638.03C1149.48 635.94 1147.31 630.69 1142.52 625.25C1133.11 614.57 1130.64 599.34 1130.13 583.51C1173.4 588.29 1198.76 569.17 1195.62 536.02C1193.62 514.61 1167.48 492.83 1127.41 509.79C1129.86 485.71 1129.24 461.45 1120.27 440.31C1110.79 417.93 1092.08 404.75 1070.58 397.67C1107.81 379.76 1166.18 404.11 1192.41 435.16C1214 460.71 1223.35 497.43 1217.73 532.4Z" fill="#201000"/>
<path d="M1000.9 563.7C1000.17 563.702 999.446 563.536 998.789 563.215C998.132 562.895 997.557 562.428 997.109 561.85C978.739 538.29 990.219 522.42 1011.11 493.61C1014.8 488.51 1018.84 482.93 1023.11 476.73C1023.47 476.212 1023.93 475.77 1024.46 475.428C1024.99 475.087 1025.58 474.854 1026.2 474.741C1026.82 474.629 1027.46 474.64 1028.07 474.774C1028.69 474.907 1029.27 475.161 1029.79 475.52C1030.31 475.879 1030.75 476.337 1031.09 476.867C1031.43 477.397 1031.67 477.989 1031.78 478.609C1031.89 479.23 1031.88 479.866 1031.75 480.482C1031.61 481.098 1031.36 481.682 1031 482.2C1026.66 488.46 1022.58 494.09 1018.86 499.2C997.059 529.34 991.359 538.79 1004.71 555.91C1005.26 556.619 1005.6 557.47 1005.7 558.364C1005.79 559.258 1005.63 560.161 1005.23 560.969C1004.84 561.776 1004.23 562.457 1003.46 562.933C1002.7 563.409 1001.82 563.661 1000.92 563.66L1000.9 563.7Z" fill="#201000"/>
<path d="M1142.83 589.05C1132.87 588.958 1122.95 587.784 1113.25 585.55C1112 585.274 1110.92 584.515 1110.24 583.441C1109.55 582.366 1109.32 581.064 1109.6 579.82C1109.87 578.576 1110.63 577.493 1111.71 576.808C1112.78 576.124 1114.08 575.894 1115.33 576.17C1143.93 582.52 1166.87 579.66 1179.91 568.17C1188.32 560.74 1192.09 549.8 1190.84 536.52C1189.96 527.33 1183.84 518.52 1174.77 513.46C1161.33 505.98 1143.37 507.1 1124.18 516.59C1123.61 516.87 1123 517.037 1122.37 517.08C1121.74 517.123 1121.11 517.041 1120.51 516.84C1119.91 516.639 1119.36 516.322 1118.89 515.908C1118.41 515.494 1118.02 514.99 1117.74 514.425C1117.46 513.86 1117.3 513.246 1117.25 512.617C1117.21 511.988 1117.29 511.357 1117.49 510.759C1117.69 510.161 1118.01 509.609 1118.43 509.134C1118.84 508.659 1119.34 508.27 1119.91 507.99C1149.73 493.21 1170.01 499.81 1179.44 505.07C1191.38 511.72 1199.21 523.13 1200.39 535.61C1201.96 552.07 1197.07 565.82 1186.27 575.36C1176 584.4 1161.04 589.05 1142.83 589.05Z" fill="#201000"/>
<path d="M1110.84 388.5C1087.95 383.61 1035.94 353.63 1029.96 392.85C1027.64 408.1 1039.96 420.04 1052.38 426.26C1077.23 438.73 1103.92 437.82 1111.89 469.54C1114.89 481.6 1119.06 504.86 1133.33 509.43C1144.84 513.11 1151.33 496.92 1154.7 486.67C1165.38 454.23 1138.52 399.76 1110.84 388.5Z" fill="#201000"/>
<path d="M1158.58 536.66C1153.07 535.352 1147.29 535.753 1142.02 537.811C1136.74 539.869 1132.22 543.486 1129.05 548.18C1125.51 553.27 1133.84 558.08 1137.34 553.03C1139.39 550.116 1142.26 547.881 1145.59 546.614C1148.92 545.346 1152.55 545.105 1156.02 545.92C1162.04 547.31 1164.61 538.05 1158.58 536.66Z" fill="#201000"/>
<path d="M1046.91 485.28C1039.91 485.28 1039.91 496.08 1046.91 496.08C1053.91 496.08 1053.88 485.28 1046.91 485.28Z" fill="#201000"/>
<path d="M1060.19 468.05L1050.59 465.65C1044.59 464.15 1042.03 473.41 1048.04 474.91L1057.64 477.31C1063.64 478.8 1066.2 469.54 1060.19 468.05Z" fill="#201000"/>
<path d="M1052.94 585.59C1051.04 588.156 1048.38 590.06 1045.34 591.031C1042.3 592.002 1039.03 591.991 1036 591C1030.09 589.15 1027.56 598.42 1033.45 600.26C1038.12 601.722 1043.11 601.752 1047.8 600.348C1052.48 598.943 1056.64 596.168 1059.73 592.38C1063.52 587.59 1056.78 580.75 1052.94 585.59Z" fill="#201000"/>
<path d="M1316.24 567.52C1300.24 539.64 1305.03 512.31 1297.91 482.39C1284.06 424.24 1222.25 431.39 1177.66 444.97C1171.77 446.76 1174.28 456.03 1180.22 454.23C1183.31 453.29 1186.45 452.33 1189.61 451.39C1188.18 455.921 1188.04 460.758 1189.19 465.367C1190.33 469.976 1192.73 474.178 1196.12 477.51C1199.85 481.21 1201.67 468.33 1200.57 464.27C1209.89 464.104 1218.93 467.543 1225.78 473.87C1250.92 497.25 1223.78 557.75 1230.49 589.18C1238.81 627.99 1292.58 662.47 1321.36 620.86C1334.52 601.86 1326.52 585.4 1316.24 567.52Z" fill="#201000"/>
<path d="M1213.04 1127.75C1212.23 1127.75 1211.43 1127.54 1210.72 1127.14C1207.24 1125.17 1204.46 1122.18 1202.74 1118.57C1201.03 1114.97 1200.47 1110.92 1201.14 1106.98C1202.53 1099.2 1208.46 1093.76 1216.99 1092.45L1217.99 1092.3C1233.37 1089.93 1254.42 1086.68 1283.39 1103.58C1284.49 1104.22 1285.29 1105.27 1285.61 1106.51C1285.94 1107.74 1285.76 1109.05 1285.12 1110.15C1284.48 1111.25 1283.42 1112.05 1282.19 1112.38C1280.96 1112.7 1279.65 1112.52 1278.55 1111.88C1252.55 1096.69 1234.17 1099.52 1219.45 1101.79L1218.45 1101.94C1214.03 1102.62 1211.24 1105.01 1210.58 1108.67C1210.25 1110.64 1210.53 1112.66 1211.38 1114.47C1212.24 1116.27 1213.63 1117.76 1215.37 1118.75C1216.3 1119.27 1217.04 1120.08 1217.46 1121.06C1217.88 1122.04 1217.96 1123.13 1217.69 1124.16C1217.42 1125.19 1216.82 1126.1 1215.97 1126.75C1215.13 1127.4 1214.09 1127.75 1213.03 1127.75H1213.04Z" fill="#201000"/>
<path d="M1209.52 1104.34C1208.7 1104.34 1207.9 1104.13 1207.19 1103.74C1203.72 1101.77 1200.93 1098.77 1199.22 1095.16C1197.51 1091.56 1196.94 1087.51 1197.61 1083.57C1199.01 1075.79 1204.94 1070.36 1213.47 1069.04L1214.47 1068.9C1229.85 1066.52 1250.9 1063.27 1279.88 1080.17C1280.98 1080.81 1281.78 1081.86 1282.11 1083.1C1282.43 1084.33 1282.25 1085.64 1281.61 1086.74C1280.97 1087.84 1279.92 1088.64 1278.68 1088.97C1277.45 1089.29 1276.14 1089.11 1275.04 1088.47C1249.04 1073.28 1230.66 1076.1 1215.94 1078.39L1214.94 1078.53C1210.52 1079.21 1207.73 1081.6 1207.08 1085.26C1206.74 1087.23 1207.02 1089.25 1207.88 1091.06C1208.73 1092.86 1210.12 1094.36 1211.86 1095.34C1212.79 1095.86 1213.53 1096.67 1213.95 1097.64C1214.37 1098.62 1214.45 1099.71 1214.18 1100.74C1213.92 1101.77 1213.31 1102.69 1212.47 1103.34C1211.63 1103.99 1210.59 1104.34 1209.53 1104.34H1209.52Z" fill="#201000"/>
<path d="M1208.36 1080.93C1207.54 1080.93 1206.74 1080.72 1206.03 1080.32C1202.56 1078.35 1199.77 1075.36 1198.06 1071.75C1196.35 1068.14 1195.79 1064.1 1196.46 1060.16C1197.85 1052.38 1203.78 1046.95 1212.31 1045.63C1227.48 1043.3 1265.49 1046.3 1293.97 1059.56L1274.97 875.3C1274.89 874.514 1275.01 873.721 1275.31 872.99C1275.61 872.259 1276.08 871.614 1276.69 871.11C1277.3 870.607 1278.02 870.26 1278.8 870.101C1279.57 869.943 1280.37 869.976 1281.13 870.2C1298.26 875.32 1448.84 920.39 1460.72 927.52C1461.34 927.895 1461.87 928.407 1462.27 929.018C1462.67 929.628 1462.92 930.321 1463.01 931.043C1463.1 931.766 1463.02 932.5 1462.79 933.189C1462.55 933.877 1462.16 934.504 1461.65 935.02C1432.01 964.93 1334.72 1062.79 1327.55 1066.38C1326.69 1066.83 1325.74 1067.1 1324.78 1067.17C1323.81 1067.24 1322.84 1067.11 1321.92 1066.79C1318.04 1065.44 1316.06 1061.23 1313.57 1055.89C1310.78 1049.94 1307.43 1042.78 1301.57 1039.23L1304.48 1067.44C1304.57 1068.32 1304.42 1069.21 1304.03 1070.01C1303.65 1070.81 1303.05 1071.49 1302.3 1071.97C1301.56 1072.45 1300.69 1072.72 1299.81 1072.74C1298.92 1072.76 1298.04 1072.53 1297.28 1072.08C1270.73 1056.6 1228.84 1052.8 1213.82 1055.08C1209.4 1055.76 1206.61 1058.15 1205.95 1061.81C1205.62 1063.78 1205.9 1065.8 1206.75 1067.6C1207.61 1069.4 1209 1070.9 1210.73 1071.89C1211.66 1072.41 1212.39 1073.22 1212.81 1074.19C1213.24 1075.17 1213.32 1076.26 1213.05 1077.29C1212.79 1078.32 1212.18 1079.24 1211.34 1079.89C1210.5 1080.54 1209.46 1080.89 1208.4 1080.89L1208.36 1080.93ZM1300.41 1028.36C1312.95 1031.9 1318.55 1043.86 1322.28 1051.82C1323.01 1053.4 1323.93 1055.37 1324.69 1056.68C1336.56 1046.68 1403.06 980.45 1449.9 933.24C1426.58 924.44 1344.47 899.24 1285.28 881.46L1300.41 1028.36Z" fill="#201000"/>
<path d="M1320.33 1189.16C1302.53 1189.16 1288.39 1178.16 1274.68 1167.47C1262.04 1157.62 1250.04 1148.34 1236.63 1148.82C1213.37 1149.68 1206.99 1140.33 1205.31 1134.68C1203.52 1128.68 1205.83 1121.68 1210.57 1118.83C1219.18 1113.67 1251.74 1109.41 1281.29 1129.51C1281.81 1129.86 1282.26 1130.32 1282.6 1130.85C1282.95 1131.37 1283.19 1131.96 1283.31 1132.58C1283.42 1133.2 1283.42 1133.84 1283.29 1134.46C1283.16 1135.07 1282.91 1135.66 1282.56 1136.18C1282.21 1136.7 1281.75 1137.15 1281.22 1137.49C1280.7 1137.84 1280.11 1138.08 1279.49 1138.2C1278.87 1138.31 1278.23 1138.31 1277.61 1138.18C1277 1138.05 1276.41 1137.8 1275.89 1137.45C1248.98 1119.15 1220.39 1124.14 1215.52 1127.06C1214.93 1127.72 1214.52 1128.52 1214.34 1129.39C1214.17 1130.26 1214.23 1131.15 1214.52 1131.99C1216.04 1136.99 1224.19 1139.67 1236.27 1139.22C1253.13 1138.61 1267.13 1149.42 1280.57 1159.89C1294.42 1170.68 1307.57 1180.89 1323.4 1179.42C1334.63 1178.42 1373.12 1156.57 1492.81 1058.42C1548.59 1012.66 1600.52 966.07 1602.89 935.22C1608.64 860.48 1522.69 829.11 1403.74 785.69L1390.66 780.91C1290.58 744.29 1250.43 731.69 1177.31 718.74C1176.69 718.63 1176.1 718.398 1175.56 718.059C1175.03 717.719 1174.57 717.278 1174.21 716.761C1173.85 716.244 1173.59 715.66 1173.46 715.044C1173.32 714.428 1173.31 713.791 1173.42 713.17C1173.53 712.549 1173.76 711.956 1174.1 711.424C1174.44 710.892 1174.88 710.433 1175.4 710.071C1175.92 709.71 1176.5 709.454 1177.12 709.319C1177.73 709.183 1178.37 709.17 1178.99 709.28C1252.83 722.36 1293.26 735.05 1393.99 771.89L1407.07 776.67C1529.99 821.54 1618.8 853.96 1612.5 935.96C1609.72 972.11 1552.42 1021.96 1498.94 1065.84C1367.09 1174.02 1336.13 1187.96 1324.31 1189.04C1322.95 1189.11 1321.63 1189.16 1320.33 1189.16Z" fill="#201000"/>
<path d="M1399.04 914.05C1398.03 914.052 1397.06 913.739 1396.24 913.156C1395.42 912.572 1394.81 911.747 1394.48 910.796C1394.16 909.846 1394.14 908.818 1394.44 907.857C1394.73 906.896 1395.31 906.051 1396.11 905.44C1396.57 905.09 1442.25 869.02 1442.25 798.81C1442.31 797.573 1442.84 796.406 1443.73 795.551C1444.63 794.696 1445.82 794.219 1447.05 794.219C1448.29 794.219 1449.48 794.696 1450.38 795.551C1451.27 796.406 1451.8 797.573 1451.86 798.81C1451.86 873.94 1404 911.5 1401.96 913.06C1401.12 913.704 1400.1 914.052 1399.04 914.05Z" fill="#201000"/>
<path d="M874.059 910.83C873.761 910.828 873.463 910.801 873.169 910.75C872.549 910.635 871.957 910.398 871.428 910.053C870.899 909.709 870.444 909.263 870.088 908.742C869.732 908.22 869.483 907.634 869.354 907.016C869.226 906.398 869.221 905.76 869.339 905.14C869.479 904.37 883.959 827.4 900.609 760.81C918.519 689.11 969.959 685.45 1086.1 704.42C1087.36 704.626 1088.48 705.322 1089.22 706.357C1089.97 707.391 1090.27 708.678 1090.06 709.935C1089.86 711.192 1089.16 712.316 1088.13 713.06C1087.09 713.803 1085.81 714.106 1084.55 713.9C969.459 695.11 925.779 699.72 909.919 763.14C893.339 829.45 878.919 906.14 878.769 906.91C878.564 908.01 877.981 909.004 877.121 909.72C876.261 910.435 875.178 910.828 874.059 910.83V910.83Z" fill="#201000"/>
<path d="M970.52 932.15C970.9 928.544 971.393 924.954 972 921.38C967.45 910.88 956.06 903.16 946.59 898.29C924.89 887.15 891.11 880.03 874.43 887.98C873.28 888.528 872.395 889.51 871.97 890.71C871.544 891.91 871.612 893.23 872.16 894.38C872.708 895.53 873.69 896.415 874.89 896.841C876.09 897.266 877.41 897.198 878.56 896.65C890.45 890.99 920.79 895.84 942.21 906.84C955.07 913.44 962.88 921.13 964.21 928.48C964.399 929.597 964.976 930.61 965.84 931.342C966.703 932.074 967.798 932.477 968.93 932.48C969.215 932.478 969.5 932.452 969.78 932.4C970.032 932.333 970.279 932.25 970.52 932.15V932.15Z" fill="#201000"/>
<path d="M883.649 982.85C882.499 982.85 881.388 982.437 880.518 981.686C879.648 980.936 879.077 979.897 878.909 978.76C878.499 976.02 837.779 704.22 807.639 659C806.932 657.939 806.675 656.641 806.926 655.391C807.176 654.141 807.913 653.042 808.974 652.335C810.034 651.628 811.333 651.372 812.583 651.622C813.832 651.872 814.932 652.609 815.639 653.67C846.959 700.67 886.739 966.07 888.419 977.35C888.511 977.974 888.479 978.609 888.325 979.221C888.171 979.832 887.899 980.408 887.523 980.914C887.147 981.42 886.675 981.847 886.133 982.171C885.592 982.494 884.992 982.708 884.369 982.8C884.13 982.837 883.89 982.854 883.649 982.85V982.85Z" fill="#201000"/>
<path d="M841.449 652.89L822.939 645.89C822.351 645.662 821.724 645.555 821.093 645.573C820.463 645.592 819.843 645.737 819.269 646C818.694 646.257 818.176 646.626 817.743 647.084C817.311 647.542 816.973 648.081 816.749 648.67L800.099 692.43C799.875 693.019 799.769 693.648 799.787 694.278C799.806 694.909 799.949 695.529 800.208 696.105C800.468 696.68 800.838 697.198 801.298 697.63C801.758 698.061 802.299 698.398 802.889 698.62L821.399 705.62C824.888 707.062 828.63 707.789 832.404 707.759C836.179 707.728 839.909 706.941 843.373 705.443C846.838 703.944 849.966 701.766 852.574 699.037C855.181 696.308 857.214 693.083 858.553 689.554C859.892 686.025 860.508 682.263 860.367 678.491C860.225 674.719 859.328 671.014 857.728 667.595C856.129 664.176 853.859 661.113 851.055 658.587C848.25 656.061 844.967 654.124 841.399 652.89H841.449Z" fill="#3527DD"/>
<path d="M660.869 586.17C660.485 584.961 659.638 583.954 658.514 583.368C657.39 582.781 656.079 582.663 654.869 583.04L619.869 594.11C619.19 594.327 618.569 594.693 618.05 595.181C617.531 595.669 617.127 596.266 616.869 596.93C616.601 597.593 616.488 598.308 616.536 599.022C616.585 599.735 616.794 600.429 617.149 601.05L635.519 633.73C635.817 634.299 636.226 634.803 636.723 635.211C637.219 635.619 637.793 635.923 638.409 636.106C639.025 636.288 639.672 636.345 640.311 636.272C640.949 636.2 641.567 636 642.127 635.685C642.687 635.369 643.178 634.945 643.57 634.436C643.963 633.927 644.25 633.345 644.413 632.723C644.576 632.101 644.613 631.453 644.521 630.817C644.43 630.181 644.211 629.57 643.879 629.02L641.879 625.53L654.129 593.34L657.749 592.19C658.96 591.804 659.968 590.953 660.553 589.825C661.138 588.696 661.252 587.382 660.869 586.17V586.17Z" fill="white"/>
<path d="M825.61 648.37C825.353 647.795 824.984 647.276 824.526 646.844C824.068 646.412 823.529 646.074 822.94 645.85L658 583.13C657.411 582.904 656.784 582.796 656.153 582.813C655.523 582.831 654.902 582.973 654.326 583.231C653.751 583.489 653.232 583.859 652.801 584.319C652.369 584.779 652.032 585.319 651.81 585.91L635.16 629.67C634.709 630.859 634.748 632.18 635.269 633.34C635.79 634.501 636.751 635.407 637.94 635.86L802.94 698.58C803.482 698.793 804.058 698.901 804.64 698.9C805.615 698.9 806.567 698.604 807.369 698.05C808.171 697.496 808.785 696.711 809.13 695.8L825.72 652.05C825.947 651.46 826.054 650.831 826.035 650.199C826.016 649.567 825.871 648.945 825.61 648.37V648.37Z" fill="#201000"/>
<path d="M621.259 603.5C620.675 603.496 620.096 603.387 619.549 603.18L601.599 596.35C601.008 596.126 600.467 595.788 600.007 595.355C599.547 594.922 599.176 594.402 598.917 593.826C598.657 593.25 598.514 592.628 598.494 591.997C598.475 591.365 598.58 590.736 598.804 590.145C599.028 589.554 599.366 589.013 599.799 588.552C600.232 588.092 600.752 587.722 601.328 587.462C601.904 587.203 602.526 587.059 603.158 587.04C603.789 587.021 604.418 587.126 605.009 587.35L623.009 594.17C624.057 594.572 624.931 595.328 625.48 596.307C626.029 597.286 626.218 598.426 626.015 599.53C625.812 600.633 625.23 601.631 624.368 602.351C623.507 603.07 622.422 603.466 621.299 603.47L621.259 603.5Z" fill="#201000"/>
<path d="M755.609 681.36V822.8H746.779C738.609 778.64 735.349 758.05 729.999 736.8C711.589 663.57 682.629 640.11 697.589 633.56C709.379 628.36 729.779 672.6 755.609 681.36Z" fill="white"/>
<path d="M885.05 1119.67C876.249 1119.62 867.469 1118.81 858.81 1117.23C786.15 1104.41 769.41 1005.96 754.65 919.11C752.05 903.85 749.65 889.43 746.9 875.75C736.42 822.63 733.33 794.75 731.08 774.38C729.51 760.23 728.37 750 725.35 737.94C715.91 700.4 702.83 676.65 694.18 660.94C685.66 645.48 680.03 635.27 690.07 628.37C703.13 619.37 714.97 635.21 726.42 650.49C737.04 664.66 749.14 680.7 760.97 678.06C761.59 677.909 762.234 677.884 762.864 677.985C763.495 678.087 764.099 678.312 764.641 678.65C765.182 678.987 765.652 679.43 766.021 679.951C766.389 680.472 766.651 681.061 766.789 681.684C766.927 682.307 766.94 682.952 766.826 683.58C766.712 684.208 766.474 684.808 766.126 685.343C765.778 685.878 765.327 686.338 764.798 686.696C764.27 687.055 763.676 687.304 763.05 687.43C745.18 691.43 731.1 672.74 718.74 656.25C708.33 642.36 700.6 632.78 695.51 636.25C692.89 638.05 695.37 643.17 702.58 656.25C711.48 672.39 724.92 696.79 734.66 735.54C737.85 748.23 739.01 758.73 740.66 773.27C742.89 793.46 745.96 821.11 756.36 873.82C759.09 887.64 761.55 902.11 764.16 917.44C778.39 1001.17 794.53 1096.06 860.52 1107.71C908.17 1116.12 941.52 1100.86 959.79 1062.37C960.046 1061.78 960.419 1061.25 960.885 1060.8C961.352 1060.36 961.903 1060.02 962.505 1059.79C963.108 1059.56 963.749 1059.46 964.392 1059.49C965.035 1059.51 965.667 1059.67 966.248 1059.95C966.83 1060.22 967.35 1060.61 967.778 1061.09C968.206 1061.57 968.532 1062.13 968.739 1062.74C968.945 1063.35 969.027 1064 968.979 1064.64C968.931 1065.28 968.754 1065.91 968.46 1066.48C951.69 1101.87 923.7 1119.67 885.05 1119.67Z" fill="#201000"/>
<path d="M717.4 601.61C717.4 601.61 703.51 604.13 690.88 607.92C674.67 612.78 676.32 586.19 709.4 584.35C724.56 583.51 740.55 597.82 742.24 616.35" fill="white"/>
<path d="M742.23 621.14C741.032 621.14 739.876 620.691 738.992 619.883C738.107 619.074 737.557 617.964 737.45 616.77C735.94 600.16 721.39 588.39 709.67 589.14C695.38 589.94 688.06 595.7 686.13 600.38C685.5 601.93 685.62 603.07 685.9 603.38C686.18 603.69 687.41 603.94 689.5 603.31C702.24 599.49 715.97 596.98 716.5 596.87C717.753 596.642 719.046 596.921 720.093 597.646C721.14 598.371 721.857 599.482 722.085 600.735C722.313 601.988 722.034 603.281 721.309 604.328C720.584 605.375 719.473 606.092 718.22 606.32C718.08 606.32 704.43 608.85 692.22 612.51C686.7 614.17 681.79 613.19 678.75 609.83C675.71 606.47 675.19 601.65 677.21 596.73C680.34 589.1 690.36 580.58 709.1 579.54C727.47 578.54 745.1 595.54 746.98 615.9C747.094 617.168 746.7 618.429 745.884 619.406C745.068 620.383 743.898 620.996 742.63 621.11L742.23 621.14Z" fill="#201000"/>
<path d="M733.19 610.45C733.19 610.45 719.29 612.97 706.67 616.76C690.46 621.62 692.1 595.03 725.19 593.19C740.34 592.35 756.34 606.66 758.02 625.19" fill="white"/>
<path d="M758.009 629.98C756.813 629.977 755.66 629.528 754.778 628.719C753.895 627.911 753.346 626.802 753.239 625.61C751.729 609 737.329 597.25 725.449 597.98C711.159 598.78 703.849 604.53 701.919 609.22C701.289 610.77 701.399 611.91 701.689 612.22C701.979 612.53 703.189 612.78 705.289 612.15C718.029 608.33 731.749 605.82 732.289 605.71C733.542 605.483 734.834 605.763 735.881 606.489C736.927 607.215 737.643 608.327 737.869 609.58C738.096 610.833 737.816 612.125 737.09 613.171C736.364 614.218 735.252 614.933 733.999 615.16C733.869 615.16 720.219 617.69 707.999 621.35C702.499 623 697.569 622.03 694.529 618.67C691.489 615.31 690.969 610.48 692.989 605.57C696.109 597.94 706.139 589.43 724.869 588.38C743.169 587.38 760.869 604.38 762.749 624.74C762.807 625.367 762.741 625.999 762.554 626.601C762.367 627.202 762.063 627.761 761.66 628.245C761.257 628.729 760.762 629.129 760.204 629.421C759.647 629.714 759.037 629.893 758.409 629.95L758.009 629.98Z" fill="#201000"/>
<path d="M750.86 618.05C750.86 618.05 736.97 620.58 724.35 624.37C708.14 629.23 709.78 602.63 742.87 600.8C753.79 600.19 765.15 607.46 771.28 618.5" fill="white"/>
<path d="M720.67 629.72C719.101 629.778 717.538 629.499 716.085 628.902C714.633 628.305 713.325 627.404 712.25 626.26C709.25 622.97 708.69 618.07 710.72 613.16C713.84 605.53 723.86 597.01 742.6 595.97C755.27 595.25 768.4 603.38 775.48 616.15C776.097 617.265 776.245 618.58 775.893 619.804C775.54 621.029 774.715 622.063 773.6 622.68C772.485 623.297 771.17 623.445 769.946 623.092C768.721 622.74 767.687 621.915 767.07 620.8C761.75 611.18 752.18 605.02 743.14 605.56C728.84 606.35 721.52 612.11 719.6 616.8C718.96 618.35 719.08 619.49 719.37 619.8C719.66 620.11 720.87 620.36 722.97 619.73C735.7 615.91 749.43 613.39 749.97 613.29C751.223 613.063 752.515 613.344 753.562 614.069C754.608 614.795 755.323 615.907 755.55 617.16C755.777 618.413 755.497 619.705 754.771 620.751C754.045 621.798 752.933 622.513 751.68 622.74C751.55 622.74 737.9 625.26 725.68 628.93C724.056 629.428 722.369 629.694 720.67 629.72V629.72Z" fill="#201000"/>
<path d="M767.909 625.6C767.909 625.6 754.019 628.13 741.389 631.91C725.189 636.78 726.829 610.18 759.909 608.34C775.069 607.5 801.229 619.53 806.829 639.53L767.909 625.6Z" fill="white"/>
<path d="M806.819 644.34C805.773 644.337 804.757 643.992 803.925 643.359C803.093 642.725 802.49 641.837 802.209 640.83C797.409 623.68 773.889 612.46 760.209 613.14C745.919 613.93 738.599 619.69 736.679 624.38C736.039 625.93 736.159 627.07 736.449 627.38C736.739 627.69 737.949 627.94 740.039 627.3C752.779 623.48 766.509 620.97 767.039 620.87C768.292 620.643 769.584 620.923 770.631 621.649C771.677 622.375 772.393 623.487 772.619 624.74C772.846 625.993 772.566 627.285 771.84 628.331C771.114 629.378 770.002 630.093 768.749 630.32C768.619 630.32 754.959 632.84 742.749 636.5C737.239 638.15 732.319 637.19 729.279 633.83C726.239 630.47 725.719 625.64 727.739 620.72C730.869 613.1 740.889 604.58 759.629 603.54C776.519 602.63 805.109 615.65 811.429 638.23C811.628 638.944 811.659 639.695 811.52 640.423C811.381 641.151 811.075 641.837 810.627 642.428C810.179 643.018 809.6 643.497 808.936 643.827C808.272 644.157 807.541 644.329 806.799 644.33L806.819 644.34Z" fill="#201000"/>
<path d="M1126.77 1112.05C1047.04 1112.05 970.118 1095.82 969.078 1095.6C968.461 1095.47 967.876 1095.22 967.357 1094.86C966.838 1094.5 966.394 1094.05 966.051 1093.52C965.708 1092.99 965.472 1092.4 965.357 1091.78C965.243 1091.16 965.251 1090.52 965.383 1089.9C965.514 1089.29 965.765 1088.7 966.123 1088.18C966.48 1087.66 966.936 1087.22 967.465 1086.88C967.994 1086.53 968.585 1086.3 969.205 1086.18C969.825 1086.07 970.461 1086.08 971.078 1086.21C972.488 1086.51 1112.23 1115.99 1208.49 1094.86C1209.73 1094.59 1211.03 1094.82 1212.11 1095.5C1213.18 1096.19 1213.94 1097.27 1214.21 1098.51C1214.49 1099.76 1214.26 1101.06 1213.57 1102.13C1212.89 1103.21 1211.8 1103.97 1210.56 1104.24C1184.52 1109.94 1155.52 1112.05 1126.77 1112.05Z" fill="#201000"/>
<path d="M1094.93 1167.72C1093.69 1167.72 1092.5 1167.24 1091.61 1166.39C1090.72 1165.53 1090.19 1164.37 1090.13 1163.13L1087.73 1107.91C1087.7 1107.28 1087.8 1106.65 1088.01 1106.06C1088.23 1105.46 1088.56 1104.92 1088.99 1104.45C1089.41 1103.99 1089.93 1103.61 1090.5 1103.35C1091.07 1103.08 1091.69 1102.93 1092.32 1102.9C1092.95 1102.87 1093.58 1102.97 1094.17 1103.18C1094.76 1103.4 1095.31 1103.73 1095.77 1104.16C1096.24 1104.58 1096.62 1105.1 1096.88 1105.67C1097.15 1106.24 1097.3 1106.86 1097.33 1107.49L1099.73 1162.71C1099.78 1163.98 1099.33 1165.22 1098.47 1166.16C1097.61 1167.1 1096.41 1167.66 1095.14 1167.71L1094.93 1167.72Z" fill="#201000"/>
<path d="M1063.72 1165.32C1062.48 1165.32 1061.29 1164.84 1060.4 1163.99C1059.5 1163.13 1058.97 1161.97 1058.92 1160.73L1056.52 1105.51C1056.46 1104.24 1056.92 1103 1057.78 1102.06C1058.64 1101.12 1059.84 1100.56 1061.11 1100.51C1062.37 1100.48 1063.6 1100.94 1064.54 1101.79C1065.47 1102.65 1066.03 1103.84 1066.11 1105.1L1068.51 1160.32C1068.56 1161.59 1068.11 1162.83 1067.25 1163.77C1066.39 1164.71 1065.19 1165.27 1063.92 1165.32H1063.72Z" fill="#201000"/>
<path d="M1122.52 1137.62C1043.04 1137.62 970.208 1124.62 969.228 1124.43C968.607 1124.32 968.015 1124.08 967.485 1123.74C966.955 1123.4 966.497 1122.96 966.137 1122.44C965.778 1121.92 965.524 1121.34 965.39 1120.72C965.257 1120.11 965.246 1119.47 965.358 1118.85C965.47 1118.23 965.704 1117.64 966.045 1117.11C966.386 1116.58 966.828 1116.12 967.347 1115.76C967.865 1115.4 968.449 1115.15 969.065 1115.01C969.681 1114.88 970.318 1114.87 970.938 1114.98C972.258 1115.21 1103.39 1138.64 1204.6 1122.17C1205.23 1122.04 1205.88 1122.05 1206.51 1122.18C1207.14 1122.31 1207.74 1122.57 1208.27 1122.94C1208.8 1123.3 1209.25 1123.77 1209.59 1124.32C1209.93 1124.86 1210.16 1125.47 1210.27 1126.11C1210.37 1126.74 1210.35 1127.39 1210.19 1128.02C1210.04 1128.65 1209.76 1129.23 1209.38 1129.75C1208.99 1130.27 1208.51 1130.7 1207.95 1131.02C1207.39 1131.35 1206.78 1131.56 1206.14 1131.64C1179.34 1136.05 1150.52 1137.62 1122.52 1137.62Z" fill="#201000"/>
<path d="M962.878 1189.33C962.242 1189.33 961.613 1189.2 961.026 1188.95C960.44 1188.7 959.908 1188.34 959.462 1187.89C959.016 1187.44 958.664 1186.9 958.426 1186.31C958.189 1185.72 958.071 1185.09 958.078 1184.45L963.678 814.72C963.699 813.46 964.214 812.258 965.112 811.374C966.009 810.489 967.218 809.992 968.478 809.99H968.558C969.189 810 969.811 810.135 970.389 810.386C970.968 810.637 971.491 810.999 971.929 811.452C972.368 811.905 972.712 812.44 972.944 813.027C973.175 813.613 973.289 814.239 973.278 814.87L967.788 1177.74C993.788 1166.1 1000.5 1128.11 1000.56 1127.74C1000.77 1126.48 1001.48 1125.36 1002.51 1124.63C1003.55 1123.89 1004.84 1123.6 1006.1 1123.81C1007.35 1124.02 1008.47 1124.73 1009.21 1125.77C1009.95 1126.8 1010.24 1128.09 1010.03 1129.35C1009.68 1131.35 1001.03 1179.75 964.028 1189.22C963.651 1189.3 963.265 1189.34 962.878 1189.33V1189.33Z" fill="#201000"/>
<path d="M1273.29 1202.79C1210.29 1202.79 1182.03 1136.67 1181.73 1135.95C1181.27 1134.78 1181.29 1133.48 1181.78 1132.32C1182.27 1131.17 1183.19 1130.25 1184.35 1129.77C1185.51 1129.29 1186.81 1129.28 1187.98 1129.74C1189.14 1130.21 1190.08 1131.11 1190.59 1132.26C1191.82 1135.19 1221.26 1203.76 1288.59 1191.8C1289.84 1191.58 1291.13 1191.86 1292.18 1192.59C1293.22 1193.32 1293.94 1194.44 1294.16 1195.69C1294.38 1196.94 1294.1 1198.24 1293.37 1199.28C1292.64 1200.32 1291.52 1201.04 1290.27 1201.26C1284.66 1202.27 1278.98 1202.78 1273.29 1202.79V1202.79Z" fill="#201000"/>
</g>
<defs>
<clipPath id="clip0_365_923">
<rect width="1612.79" height="1202.79" fill="white"/>
</clipPath>
</defs>
</svg>
