<svg width="330" height="222" viewBox="0 0 330 222" fill="none" xmlns="http://www.w3.org/2000/svg">
<g clip-path="url(#clip0_111_1970)">
<path d="M328.763 82.4053C329.445 82.4053 329.998 81.8538 329.998 81.1734C329.998 80.493 329.445 79.9414 328.763 79.9414C328.081 79.9414 327.528 80.493 327.528 81.1734C327.528 81.8538 328.081 82.4053 328.763 82.4053Z" fill="#FAC9B8"/>
<path d="M314.599 45.0239H182.17V139.014H314.599V45.0239Z" fill="#3527DD"/>
<path d="M182.17 139.999C181.979 140 181.792 139.945 181.631 139.842C181.47 139.739 181.343 139.592 181.265 139.418C181.186 139.244 181.16 139.051 181.189 138.863C181.219 138.674 181.302 138.498 181.429 138.356L245.337 66.0571C245.429 65.9544 245.542 65.872 245.668 65.8151C245.794 65.7581 245.93 65.728 246.068 65.7266C246.205 65.7266 246.341 65.754 246.468 65.8073C246.594 65.8605 246.709 65.9385 246.805 66.0366L315.325 138.336C315.505 138.526 315.602 138.781 315.595 139.042C315.587 139.304 315.475 139.552 315.284 139.732C315.093 139.912 314.838 140.008 314.576 140.001C314.313 139.993 314.065 139.882 313.885 139.691L246.107 68.1761L182.921 139.666C182.828 139.772 182.712 139.857 182.582 139.914C182.453 139.972 182.312 140.001 182.17 139.999Z" fill="white"/>
<path d="M314.599 45.0259L245.42 103.521L182.17 45.0259H314.599Z" fill="#FAC9B8"/>
<path d="M314.599 45.0258L211.818 0L182.17 45.0258H314.599Z" fill="#FAC9B8"/>
<path d="M328.763 75.5824C328.501 75.5824 328.25 75.4785 328.064 75.2937C327.879 75.1089 327.775 74.8582 327.775 74.5968V48.3151C327.775 48.0538 327.879 47.8031 328.064 47.6183C328.25 47.4334 328.501 47.3296 328.763 47.3296C329.025 47.3296 329.276 47.4334 329.462 47.6183C329.647 47.8031 329.751 48.0538 329.751 48.3151V74.5968C329.751 74.8582 329.647 75.1089 329.462 75.2937C329.276 75.4785 329.025 75.5824 328.763 75.5824Z" fill="#FAC9B8"/>
<path d="M314.605 46.0157H182.17C181.916 46.0041 181.675 45.8951 181.5 45.7113C181.324 45.5276 181.225 45.2832 181.225 45.0291C181.225 44.7749 181.324 44.5306 181.5 44.3468C181.675 44.1631 181.916 44.0541 182.17 44.0425H314.605C314.859 44.0541 315.099 44.1631 315.275 44.3468C315.451 44.5306 315.55 44.7749 315.55 45.0291C315.55 45.2832 315.451 45.5276 315.275 45.7113C315.099 45.8951 314.859 46.0041 314.605 46.0157Z" fill="white"/>
<path d="M218.736 57.6758H250.361C251.633 57.6758 251.635 59.6469 250.361 59.6469H218.736C217.46 59.6469 217.46 57.6758 218.736 57.6758Z" fill="#326C56"/>
<path d="M215.772 65.5625H247.396C248.668 65.5625 248.67 67.5357 247.396 67.5357H215.772C214.5 67.5357 214.498 65.5625 215.772 65.5625Z" fill="#326C56"/>
<path d="M50.0731 74.9297H0V111.736H50.0731V74.9297Z" fill="#1282A2"/>
<path d="M60.2836 122.91H10.2023C9.94026 122.91 9.68898 122.806 9.50371 122.621C9.31844 122.437 9.21436 122.186 9.21436 121.925V85.1179C9.21436 84.8565 9.31844 84.6058 9.50371 84.421C9.68898 84.2362 9.94026 84.1323 10.2023 84.1323H60.2836C60.5456 84.1323 60.7969 84.2362 60.9822 84.421C61.1674 84.6058 61.2715 84.8565 61.2715 85.1179V121.925C61.2715 122.186 61.1674 122.437 60.9822 122.621C60.7969 122.806 60.5456 122.91 60.2836 122.91ZM11.2005 120.939H59.2957V86.1034H11.2005V120.939Z" fill="#201000"/>
<path d="M35.248 104.507C35.0371 104.507 34.8315 104.44 34.6615 104.316L9.62593 85.9125C9.52133 85.8358 9.4329 85.7393 9.36569 85.6285C9.29848 85.5177 9.25381 85.3947 9.23422 85.2667C9.21463 85.1387 9.22051 85.008 9.25152 84.8823C9.28254 84.7565 9.33808 84.6381 9.41497 84.5337C9.49187 84.4294 9.58861 84.3412 9.69968 84.2741C9.81075 84.2071 9.93397 84.1625 10.0623 84.1429C10.1906 84.1234 10.3216 84.1293 10.4476 84.1602C10.5737 84.1912 10.6924 84.2466 10.797 84.3233L35.248 102.297L59.697 84.3233C59.8011 84.2402 59.921 84.179 60.0494 84.1432C60.1778 84.1075 60.3121 84.098 60.4443 84.1154C60.5765 84.1327 60.7038 84.1765 60.8186 84.2441C60.9335 84.3117 61.0334 84.4018 61.1124 84.5089C61.1915 84.616 61.2481 84.7379 61.2787 84.8674C61.3094 84.9968 61.3135 85.1311 61.2909 85.2622C61.2683 85.3933 61.2194 85.5184 61.147 85.6302C61.0747 85.7419 60.9805 85.8379 60.8701 85.9125L35.8326 104.316C35.6632 104.44 35.4583 104.507 35.248 104.507Z" fill="#201000"/>
<path d="M70.8256 77.2293C74.1004 77.2293 76.7551 74.5809 76.7551 71.3139C76.7551 68.0469 74.1004 65.3984 70.8256 65.3984C67.5508 65.3984 64.896 68.0469 64.896 71.3139C64.896 74.5809 67.5508 77.2293 70.8256 77.2293Z" fill="#326C56"/>
<path d="M306.035 168.591C311.129 168.591 315.259 164.471 315.259 159.388C315.259 154.306 311.129 150.186 306.035 150.186C300.94 150.186 296.81 154.306 296.81 159.388C296.81 164.471 300.94 168.591 306.035 168.591Z" fill="#326C56"/>
<path d="M290.22 160.382H250.691C250.557 160.388 250.423 160.367 250.298 160.32C250.173 160.273 250.058 160.202 249.962 160.109C249.865 160.017 249.788 159.906 249.735 159.784C249.683 159.661 249.656 159.529 249.656 159.395C249.656 159.262 249.683 159.13 249.735 159.007C249.788 158.884 249.865 158.773 249.962 158.681C250.058 158.589 250.173 158.517 250.298 158.47C250.423 158.424 250.557 158.403 250.691 158.409H290.22C290.353 158.403 290.487 158.424 290.612 158.47C290.737 158.517 290.852 158.589 290.949 158.681C291.045 158.773 291.122 158.884 291.175 159.007C291.228 159.13 291.255 159.262 291.255 159.395C291.255 159.529 291.228 159.661 291.175 159.784C291.122 159.906 291.045 160.017 290.949 160.109C290.852 160.202 290.737 160.273 290.612 160.32C290.487 160.367 290.353 160.388 290.22 160.382Z" fill="#201000"/>
<path d="M255.108 185.183C256.205 183.211 257.303 181.239 258.401 179.268C259.018 178.157 260.726 179.151 260.109 180.262L256.816 186.177C256.196 187.28 254.488 186.294 255.108 185.183Z" fill="#FAC9B8"/>
<path d="M250.993 183.777L254.323 177.882C254.941 176.777 256.657 177.771 256.032 178.878L252.699 184.773C252.076 185.879 250.368 184.886 250.993 183.777Z" fill="#FAC9B8"/>
<path d="M55.208 24.8077L59.1597 30.7231C59.8677 31.7826 58.1574 32.7763 57.4535 31.7189C56.139 29.7519 54.8211 27.7801 53.4997 25.8035C52.7938 24.744 54.5041 23.7564 55.208 24.8077Z" fill="#FAC9B8"/>
<path d="M4.14301 165.406L6.13737 171.316C6.549 172.521 4.63491 173.038 4.23151 171.839L2.23715 165.926C1.82963 164.725 3.73755 164.207 4.14301 165.406Z" fill="#3527DD"/>
<path d="M89.5364 98.5784C90.8104 109.101 104.468 108.229 109.058 100.691C112.11 95.6854 111.262 89.809 109.427 84.5629C108.21 81.0929 106.434 77.6003 106.28 73.8634C106.074 68.8575 109.171 65.2685 112.477 61.9956C112.478 62.0058 112.478 62.0161 112.477 62.0264C112.777 63.2583 114.681 62.7347 114.383 61.5007C112.141 52.1872 100.729 54.2281 96.5342 60.7985C93.1691 66.0795 93.5457 72.5924 93.3523 78.5797C93.1979 83.3145 92.1174 87.0966 90.6993 91.5296C89.9686 93.8108 89.2359 96.1597 89.5364 98.5784Z" fill="#201000"/>
<path d="M147.134 51.7316C153.515 43.381 148.575 32.0429 139.675 35.9852C130.776 39.9274 112.415 51.5591 111.715 63.4906C111.015 75.422 109.532 89.2261 122.875 91.1972C136.218 93.1683 147.134 51.7316 147.134 51.7316Z" fill="#201000"/>
<path d="M160.356 85.7949C159.222 91.2976 154.286 94.1208 148.74 95.7019L147.251 112.723C147.251 112.723 144.944 122.579 141.322 134.412C133.089 123.567 126.003 114.037 126.003 114.037C126.003 114.037 126.168 108.122 127.413 93.7492C121.992 91.8458 117.859 83.3618 117.859 83.3618C108.329 84.8689 98.2774 81.4728 99.1974 71.4529C99.8519 64.3528 106.607 62.8292 111.715 63.4822C113.81 63.7553 115.638 64.3836 116.655 65.1371C116.655 65.1371 114.877 57.7906 125.665 51.7909C134.954 46.6208 141.954 46.4648 147.126 51.7252C149.019 53.6368 150.662 56.2773 152.094 59.6467C156.421 69.8514 161.5 80.2203 160.356 85.7949Z" fill="white"/>
<path d="M141.322 135.4C141.169 135.399 141.019 135.364 140.882 135.296C140.745 135.227 140.626 135.129 140.534 135.007C132.39 124.283 125.281 114.719 125.211 114.625C125.078 114.447 125.01 114.23 125.015 114.009C125.015 113.951 125.188 108.108 126.365 94.3919C121.837 92.3387 118.365 86.4233 117.309 84.4398C110.81 85.3083 104.938 83.9409 101.497 80.7255C99.0041 78.3971 97.8721 75.1632 98.22 71.3708C98.4752 68.5928 99.5989 66.3896 101.556 64.821C105.07 62.0059 109.923 62.2688 111.847 62.511C113.126 62.6666 114.38 62.9812 115.581 63.4473C115.71 60.6754 117.145 55.4191 125.205 50.9348C135.008 45.4772 142.417 45.5142 147.844 51.0416C149.818 53.0332 151.51 55.725 153.017 59.2669C153.634 60.7226 154.264 62.1784 154.889 63.626C158.738 72.5145 162.371 80.9103 161.327 85.9921C160.298 90.9466 156.493 94.3755 149.67 96.4637L148.229 112.816C148.226 112.863 148.218 112.91 148.207 112.955C148.184 113.054 145.852 122.981 142.261 134.72C142.197 134.921 142.072 135.097 141.902 135.222C141.732 135.348 141.527 135.416 141.316 135.418L141.322 135.4ZM127.003 113.727C128.162 115.284 134.065 123.207 140.937 132.272C144.039 121.936 146.083 113.409 146.274 112.561L147.756 95.6116C147.773 95.4128 147.85 95.224 147.978 95.07C148.105 94.916 148.276 94.8041 148.468 94.7492C154.927 92.9013 158.497 89.9138 159.387 85.5917C160.307 81.1176 156.629 72.6213 153.072 64.4041C152.442 62.9525 151.81 61.4906 151.193 60.0307C149.806 56.7701 148.205 54.2097 146.432 52.4213C141.639 47.5449 135.197 47.6208 126.155 52.6534C116.138 58.228 117.608 64.8456 117.622 64.9113C117.671 65.1082 117.657 65.3152 117.583 65.5041C117.509 65.693 117.379 65.8546 117.21 65.9669C117.041 66.0791 116.841 66.1366 116.638 66.1314C116.434 66.1262 116.238 66.0587 116.075 65.9379C115.173 65.2727 113.452 64.706 111.588 64.4657C108.107 64.0243 104.816 64.7327 102.789 66.3568C101.264 67.5764 100.387 69.3237 100.181 71.5495C99.8871 74.7567 100.782 77.3602 102.843 79.2841C105.92 82.1586 111.617 83.3475 117.703 82.3866C117.912 82.353 118.126 82.3876 118.314 82.4853C118.502 82.5829 118.654 82.7384 118.746 82.9286C118.787 83.0087 122.772 91.0718 127.742 92.8171C127.949 92.8903 128.125 93.0299 128.243 93.2138C128.362 93.3977 128.416 93.6157 128.397 93.8335C127.333 106.134 127.059 112.282 127.003 113.727Z" fill="#201000"/>
<path d="M148.46 75.4015C148.348 75.4011 148.238 75.3823 148.132 75.346C148.01 75.3032 147.897 75.2367 147.801 75.1503C147.704 75.064 147.625 74.9595 147.569 74.8428C147.513 74.7261 147.48 74.5995 147.473 74.4702C147.466 74.341 147.484 74.2116 147.527 74.0894C149.032 69.7961 146.91 65.897 139.389 59.1869C139.207 59.009 139.101 58.7679 139.093 58.5139C139.085 58.2598 139.175 58.0124 139.345 57.823C139.515 57.6336 139.751 57.5169 140.005 57.4971C140.259 57.4774 140.511 57.556 140.709 57.7168C147.774 64.0305 151.46 68.8393 149.392 74.7403C149.325 74.9334 149.199 75.1007 149.032 75.2192C148.864 75.3377 148.665 75.4014 148.46 75.4015Z" fill="#201000"/>
<path d="M131.134 64.8579C131.816 64.8579 132.369 64.3064 132.369 63.626C132.369 62.9456 131.816 62.394 131.134 62.394C130.452 62.394 129.899 62.9456 129.899 63.626C129.899 64.3064 130.452 64.8579 131.134 64.8579Z" fill="#201000"/>
<path d="M147.033 59.9341C147.715 59.9341 148.268 59.3826 148.268 58.7022C148.268 58.0218 147.715 57.4702 147.033 57.4702C146.351 57.4702 145.798 58.0218 145.798 58.7022C145.798 59.3826 146.351 59.9341 147.033 59.9341Z" fill="#201000"/>
<path d="M140.19 83.5655C137.805 84.4751 135.3 83.0706 134.911 80.5328C134.719 79.2824 132.754 79.4836 132.945 80.7381C133.528 84.5469 137.284 86.7809 140.912 85.397C142.1 84.9493 141.382 83.1117 140.19 83.5655Z" fill="#201000"/>
<path d="M130.825 57.0308C130.666 56.8254 130.434 56.6894 130.176 56.6511C129.919 56.6129 129.657 56.6753 129.444 56.8255L128.039 57.7043C127.588 57.9876 127.53 58.6775 127.833 59.084C127.992 59.2895 128.225 59.4256 128.483 59.4639C128.741 59.5021 129.003 59.4396 129.216 59.2894L130.62 58.4126C131.068 58.1293 131.126 57.4373 130.825 57.0308Z" fill="#201000"/>
<path d="M144.284 51.559L143.049 51.6883C141.785 51.8218 141.991 53.7826 143.254 53.6492L144.489 53.5198C145.757 53.3843 145.549 51.4234 144.284 51.559Z" fill="#201000"/>
<path d="M116.233 76.0933C116.069 76.0913 115.907 76.0486 115.764 75.9691C115.62 75.8895 115.498 75.7756 115.41 75.6375C114.449 74.1448 110.023 71.1347 106.916 72.11C106.791 72.1508 106.66 72.1665 106.53 72.1562C106.399 72.1459 106.272 72.1099 106.156 72.0502C106.039 71.9905 105.936 71.9083 105.852 71.8085C105.767 71.7086 105.704 71.593 105.665 71.4684C105.625 71.3438 105.612 71.2127 105.624 71.0827C105.636 70.9526 105.674 70.8263 105.735 70.711C105.796 70.5957 105.88 70.4938 105.982 70.4111C106.083 70.3284 106.2 70.2666 106.325 70.2292C110.367 68.9644 115.651 72.3708 117.064 74.576C117.16 74.7243 117.213 74.8954 117.22 75.0714C117.227 75.2475 117.186 75.422 117.102 75.577C117.018 75.7319 116.893 75.8615 116.742 75.9523C116.591 76.0431 116.418 76.0918 116.241 76.0933H116.233Z" fill="#201000"/>
<path d="M115.796 65.3324C118.118 66.6731 120.119 64.0511 121.092 62.2751C122.668 59.3643 123.29 56.0336 122.868 52.7521C122.718 51.5057 120.74 51.4955 120.89 52.7521C120.921 53.0026 120.934 53.251 120.954 53.4995C120.875 53.5129 120.797 53.5363 120.724 53.5693C118.196 54.9224 116.175 57.0003 115.074 59.6654C114.356 61.4147 113.8 64.1784 115.796 65.3324Z" fill="#201000"/>
<path d="M163.394 214.435C163.132 214.435 162.88 214.331 162.695 214.146C162.51 213.962 162.406 213.711 162.406 213.45V130.141C162.406 129.879 162.51 129.629 162.695 129.444C162.88 129.259 163.132 129.155 163.394 129.155C163.656 129.155 163.907 129.259 164.092 129.444C164.278 129.629 164.382 129.879 164.382 130.141V213.45C164.382 213.711 164.278 213.962 164.092 214.146C163.907 214.331 163.656 214.435 163.394 214.435Z" fill="#201000"/>
<path d="M136.956 142.957C136.783 142.957 136.614 142.912 136.464 142.826C136.314 142.74 136.189 142.616 136.102 142.467L120.872 116.341C120.807 116.229 120.764 116.105 120.747 115.977C120.729 115.849 120.737 115.718 120.771 115.593C120.804 115.468 120.861 115.351 120.94 115.248C121.019 115.145 121.117 115.058 121.229 114.993C121.341 114.928 121.465 114.885 121.594 114.868C121.722 114.851 121.853 114.859 121.979 114.892C122.104 114.925 122.222 114.982 122.325 115.061C122.428 115.139 122.515 115.237 122.58 115.349L136.959 140.003L140.472 133.921C140.543 133.797 140.64 133.69 140.756 133.607C140.873 133.525 141.006 133.468 141.147 133.442C141.287 133.416 141.432 133.421 141.571 133.456C141.709 133.491 141.839 133.556 141.95 133.646L147.095 137.812L150.8 112.253C150.837 111.994 150.976 111.761 151.186 111.604C151.396 111.447 151.66 111.38 151.919 111.417C152.179 111.455 152.413 111.593 152.57 111.803C152.727 112.012 152.794 112.275 152.757 112.534L148.803 139.812C148.777 139.983 148.706 140.145 148.597 140.28C148.488 140.415 148.345 140.519 148.183 140.582C148.02 140.644 147.844 140.663 147.673 140.636C147.501 140.609 147.339 140.537 147.204 140.428L141.598 135.898L137.809 142.462C137.722 142.613 137.598 142.737 137.448 142.824C137.298 142.911 137.128 142.957 136.954 142.957H136.956Z" fill="#201000"/>
<path d="M111.723 208.156C111.504 208.157 111.291 208.085 111.117 207.951C110.943 207.818 110.819 207.63 110.764 207.419C110.709 207.207 110.726 206.983 110.812 206.782C110.899 206.581 111.05 206.414 111.242 206.308C111.652 206.077 111.98 205.725 112.183 205.301C112.385 204.876 112.451 204.4 112.372 203.937C112.281 203.434 111.921 202.557 110.519 202.341L110.313 202.309C106.969 201.793 102.807 201.151 96.8942 204.594C96.6677 204.725 96.3981 204.762 96.1447 204.695C95.8913 204.628 95.6749 204.464 95.543 204.238C95.4112 204.012 95.3748 203.743 95.4417 203.49C95.5087 203.237 95.6736 203.021 95.9001 202.89C102.418 199.097 107.156 199.826 110.614 200.36L110.82 200.393C112.707 200.682 114.016 201.877 114.319 203.588C114.467 204.456 114.343 205.348 113.965 206.143C113.587 206.939 112.972 207.598 112.205 208.033C112.058 208.114 111.892 208.157 111.723 208.156Z" fill="#201000"/>
<path d="M112.516 202.883C112.296 202.885 112.081 202.814 111.907 202.681C111.732 202.547 111.607 202.359 111.552 202.146C111.497 201.934 111.515 201.709 111.602 201.508C111.69 201.306 111.843 201.14 112.036 201.035C112.446 200.803 112.774 200.451 112.976 200.026C113.178 199.602 113.245 199.125 113.166 198.662C113.076 198.159 112.713 197.282 111.314 197.067L111.108 197.034C107.766 196.518 103.604 195.878 97.6908 199.317C97.5787 199.384 97.4544 199.428 97.3252 199.446C97.1959 199.465 97.0642 199.458 96.9377 199.426C96.8112 199.393 96.6924 199.336 96.5882 199.257C96.484 199.179 96.3964 199.081 96.3306 198.968C96.2647 198.855 96.2219 198.731 96.2045 198.602C96.1872 198.473 96.1957 198.341 96.2296 198.216C96.2634 198.09 96.322 197.972 96.4018 197.869C96.4816 197.766 96.5812 197.679 96.6947 197.615C103.213 193.822 107.951 194.551 111.411 195.085L111.616 195.118C113.502 195.408 114.813 196.603 115.115 198.313C115.263 199.181 115.139 200.073 114.761 200.869C114.382 201.664 113.767 202.324 112.999 202.758C112.852 202.841 112.685 202.884 112.516 202.883Z" fill="#201000"/>
<path d="M112.781 197.605C112.563 197.604 112.351 197.531 112.179 197.397C112.006 197.263 111.883 197.077 111.828 196.866C111.773 196.655 111.789 196.432 111.875 196.231C111.96 196.031 112.109 195.864 112.3 195.757C112.71 195.525 113.038 195.173 113.24 194.748C113.442 194.323 113.508 193.847 113.43 193.383C113.339 192.88 112.979 192.003 111.577 191.788C108.169 191.266 98.6685 192.123 92.6546 195.623C92.497 195.713 92.3179 195.758 92.1366 195.754C91.9552 195.75 91.7785 195.696 91.6255 195.599C91.472 195.501 91.349 195.362 91.2701 195.198C91.1912 195.034 91.1596 194.851 91.1789 194.671L91.8539 188.125C90.3906 188.901 89.59 190.607 88.9293 192.026C88.3756 193.209 87.9372 194.143 87.0996 194.432C86.9044 194.5 86.6975 194.527 86.4915 194.512C86.2855 194.497 86.0848 194.44 85.9017 194.344C84.3005 193.545 55.7311 170.592 50.0197 166.009C49.896 165.91 49.7984 165.782 49.7349 165.636C49.6715 165.491 49.6441 165.332 49.6552 165.174C49.6664 165.016 49.7156 164.862 49.7987 164.727C49.8819 164.592 49.9965 164.479 50.1329 164.397C52.8085 162.794 91.9342 151.583 96.386 150.31C96.5414 150.266 96.7052 150.261 96.8631 150.294C97.0211 150.328 97.1684 150.4 97.2922 150.503C97.4161 150.606 97.5126 150.739 97.5735 150.888C97.6344 151.037 97.6577 151.199 97.6415 151.359L93.3337 193.065C99.7655 190.022 108.443 189.33 111.882 189.86C113.769 190.149 115.078 191.344 115.381 193.057C115.528 193.925 115.404 194.817 115.025 195.612C114.646 196.407 114.031 197.066 113.263 197.5C113.114 197.576 112.948 197.612 112.781 197.605ZM52.5409 165.492C65.4744 175.885 83.788 190.5 86.513 192.389C86.6982 192.094 86.939 191.568 87.1304 191.174C87.9722 189.381 89.2359 186.683 92.07 185.92L95.5133 152.579C80.0524 157.018 58.3923 163.383 52.5409 165.492Z" fill="#201000"/>
<path d="M87.4803 222.002C87.1901 222.002 86.8957 221.987 86.5973 221.96C81.4519 221.494 57.8324 206.15 40.9493 193.268C27.1143 182.706 16.4838 174.007 15.8808 166.165C14.4607 147.756 34.501 140.459 62.2389 130.359L66.8533 128.675C94.0849 118.733 98.2712 117.205 125.855 113.052C126.114 113.012 126.378 113.078 126.589 113.233C126.801 113.388 126.941 113.62 126.981 113.879C127.02 114.138 126.955 114.401 126.799 114.612C126.643 114.823 126.41 114.963 126.151 115.002C98.7631 119.125 95.2066 120.423 67.5325 130.527L62.9161 132.211C35.9973 142.013 16.5477 149.097 17.8525 166.015C18.3918 173.019 29.1724 181.786 42.1512 191.681C62.1154 206.924 82.8926 219.624 86.7743 219.977C90.409 220.308 93.3769 217.998 96.5218 215.554C99.5432 213.203 102.653 210.766 106.469 210.914C109.256 211.017 111.133 210.378 111.481 209.208C111.658 208.618 111.374 208.091 111.213 207.996C110.1 207.331 103.585 206.189 97.4685 210.341C97.3612 210.414 97.2406 210.465 97.1135 210.492C96.9864 210.518 96.8553 210.519 96.7277 210.495C96.6001 210.471 96.4786 210.422 96.37 210.351C96.2614 210.28 96.1678 210.188 96.0947 210.081C96.0216 209.974 95.9703 209.854 95.9439 209.727C95.9174 209.6 95.9162 209.47 95.9404 209.342C95.9645 209.215 96.0136 209.094 96.0848 208.985C96.1559 208.877 96.2478 208.784 96.3551 208.711C103.448 203.9 110.785 205.44 112.23 206.304C113.259 206.92 113.769 208.448 113.376 209.768C113.006 211.015 111.61 213.074 106.397 212.885C103.351 212.768 100.605 214.879 97.7361 217.109C94.653 219.527 91.469 221.999 87.4803 222.002Z" fill="#201000"/>
<path d="M56.0006 204.083C55.7757 204.083 55.5576 204.006 55.3822 203.866C55.2067 203.726 55.0844 203.53 55.0353 203.311C54.0495 198.878 56.0191 193.045 60.3083 187.706C63.871 183.277 68.1294 180.415 71.1549 180.415C71.4094 180.427 71.6496 180.536 71.8255 180.719C72.0015 180.903 72.0997 181.148 72.0997 181.402C72.0997 181.656 72.0015 181.9 71.8255 182.084C71.6496 182.268 71.4094 182.377 71.1549 182.388C68.7798 182.388 64.9536 185.082 61.8499 188.94C58.8265 192.702 55.9553 198.338 56.9659 202.878C57.0223 203.133 56.9749 203.4 56.8341 203.621C56.6932 203.841 56.4705 203.997 56.2146 204.054C56.1446 204.072 56.0728 204.081 56.0006 204.083Z" fill="#201000"/>
<path d="M50.6309 166.208C50.5368 166.208 50.4433 166.194 50.353 166.167L45.0162 164.607C44.8917 164.57 44.7757 164.51 44.6747 164.428C44.5738 164.347 44.4898 164.247 44.4277 164.133C44.3023 163.904 44.2733 163.634 44.3473 163.383C44.4213 163.132 44.5921 162.921 44.8221 162.796C45.0522 162.671 45.3226 162.642 45.574 162.716L50.9087 164.276C51.1375 164.343 51.3346 164.489 51.4637 164.689C51.5928 164.888 51.6453 165.128 51.6115 165.363C51.5776 165.598 51.4598 165.813 51.2796 165.969C51.0994 166.124 50.8691 166.209 50.6309 166.208Z" fill="#201000"/>
<path d="M236.524 102.535C247.889 102.782 246.284 116.994 238.994 121.014C231.704 125.035 233.704 120.536 233.704 120.536C233.704 120.536 230.839 126.466 226.83 124.698C222.821 122.93 216.685 109.475 225.49 105.028C234.295 100.581 236.524 102.535 236.524 102.535Z" fill="white"/>
<path d="M234.618 103.096C233.227 103.096 230.572 103.572 225.939 105.913C223.224 107.282 221.895 109.681 221.981 113.04C222.111 117.914 225.256 122.928 227.232 123.801C230.319 125.16 232.789 120.16 232.817 120.105C232.936 119.883 233.134 119.714 233.373 119.633C233.612 119.552 233.873 119.566 234.103 119.671C234.332 119.776 234.512 119.964 234.607 120.198C234.701 120.431 234.702 120.692 234.61 120.926C234.508 121.167 234.451 121.425 234.443 121.686C234.694 121.717 235.705 121.686 238.516 120.144C242.277 118.066 244.569 112.738 243.522 108.506C242.744 105.363 240.251 103.578 236.504 103.507C236.293 103.502 236.09 103.43 235.923 103.301C235.87 103.287 235.495 103.096 234.618 103.096ZM228.312 126.014C227.664 126.011 227.023 125.871 226.433 125.604C223.578 124.345 220.152 118.604 220.005 113.091C219.898 108.964 221.64 105.874 225.046 104.153C232.698 100.287 235.8 101.014 236.823 101.556C241.33 101.743 244.465 104.098 245.442 108.046C246.706 113.159 244.03 119.364 239.473 121.881C236.18 123.698 234.225 124.115 233.147 123.226C231.953 124.692 230.267 126.016 228.312 126.016V126.014Z" fill="#201000"/>
<path d="M240.478 122.745C236.524 126.689 230.914 129.535 226.894 138.274L226.557 139.013H198.703C203.917 128.03 208.751 118.039 210.336 115.351C215.276 106.972 229.854 101.303 239.737 96.3732C249.939 91.2832 248.519 97.4491 245.42 99.5762C241.466 102.289 232.091 107.401 230.101 108.943C225.943 112.167 228.086 125.271 235.536 117.815C240.898 112.452 242.454 107.138 245.749 109.764C248.176 111.701 244.699 118.534 240.478 122.745Z" fill="white"/>
<path d="M182.796 215.263C182.369 215.263 181.94 215.245 181.509 215.208C173.153 214.501 165.913 207.263 162.611 196.318C162.569 196.192 162.553 196.06 162.563 195.929C162.574 195.797 162.61 195.669 162.671 195.552C162.732 195.435 162.816 195.331 162.918 195.247C163.02 195.162 163.138 195.099 163.264 195.061C163.391 195.023 163.524 195.011 163.655 195.026C163.787 195.04 163.914 195.08 164.03 195.145C164.145 195.209 164.247 195.296 164.328 195.4C164.409 195.504 164.469 195.623 164.503 195.751C167.52 205.75 174.259 212.618 181.676 213.245C187.46 213.737 192.601 210.356 195.779 203.976C206.234 182.994 215.615 161.501 221.222 148.659C223.28 143.964 224.889 140.255 225.99 137.866C229.078 131.162 233.04 127.848 236.534 124.93C237.697 123.957 238.798 123.037 239.778 122.055C243.1 118.741 245.691 114.048 245.555 111.594C245.514 110.847 245.226 110.617 245.131 110.541C244.469 110.011 244.102 110.056 243.985 110.071C243.082 110.179 241.894 111.713 240.517 113.497C239.202 115.263 237.772 116.941 236.236 118.52C234.108 120.647 232.144 121.454 230.399 120.908C228.79 120.407 227.619 118.76 227.188 116.391C226.68 113.592 227.31 109.871 229.493 108.177C230.523 107.375 233.26 105.773 236.421 103.921C239.453 102.143 242.89 100.127 244.86 98.7777C246.237 97.8311 246.951 96.1659 246.652 95.6608C246.461 95.3344 244.858 94.9319 240.179 97.2665C238.5 98.1042 236.681 98.9645 234.806 99.8536C225.587 104.217 215.138 109.163 211.188 115.869C207.319 122.439 183.516 173.754 183.275 174.272C183.187 174.464 183.038 174.622 182.852 174.724C182.666 174.825 182.453 174.864 182.243 174.835C182.033 174.806 181.838 174.711 181.686 174.563C181.535 174.415 181.436 174.222 181.402 174.013C181.357 173.726 176.778 145.097 173.483 129.987C170.29 115.35 158.145 111.754 148.711 113.122C148.582 113.14 148.451 113.134 148.325 113.102C148.199 113.07 148.081 113.013 147.977 112.936C147.873 112.858 147.785 112.761 147.719 112.65C147.652 112.539 147.608 112.415 147.59 112.287C147.571 112.159 147.578 112.028 147.61 111.903C147.642 111.777 147.698 111.659 147.776 111.555C147.854 111.451 147.951 111.364 148.063 111.298C148.174 111.231 148.298 111.188 148.426 111.169C159.514 109.563 172.155 114.627 175.413 129.568C178.066 141.732 181.542 162.593 182.839 170.523C188.015 159.386 206.063 120.672 209.484 114.879C213.742 107.656 224.482 102.572 233.958 98.0857C235.824 97.2028 237.627 96.3507 239.294 95.5171C244.195 93.0738 247.241 92.7904 248.35 94.6732C249.379 96.398 247.916 99.0836 245.975 100.422C243.948 101.812 240.624 103.759 237.419 105.64C234.445 107.385 231.636 109.03 230.704 109.746C229.366 110.783 228.674 113.553 229.129 116.052C229.419 117.655 230.113 118.774 230.982 119.043C231.943 119.345 233.307 118.668 234.83 117.144C236.308 115.626 237.683 114.012 238.947 112.313C240.727 110.005 242.015 108.338 243.742 108.13C244.619 108.026 245.477 108.317 246.36 109.019C246.85 109.409 247.449 110.159 247.523 111.502C247.714 114.966 244.393 120.253 241.169 123.468C240.128 124.507 238.996 125.454 237.798 126.458C234.462 129.248 230.683 132.412 227.781 138.709C226.688 141.083 225.073 144.783 223.027 149.471C217.414 162.328 208.021 183.85 197.543 204.876C194.223 211.528 188.896 215.263 182.796 215.263Z" fill="#201000"/>
<path d="M217.089 160.704H217.058C195.309 160.026 194.447 146.099 194.441 145.957C194.435 145.828 194.455 145.699 194.499 145.577C194.543 145.455 194.611 145.343 194.699 145.248C194.787 145.152 194.892 145.075 195.01 145.02C195.128 144.965 195.255 144.934 195.385 144.928C195.647 144.916 195.903 145.009 196.096 145.185C196.192 145.273 196.27 145.378 196.325 145.495C196.38 145.613 196.411 145.74 196.417 145.869C196.444 146.378 197.291 158.115 217.12 158.733C217.382 158.737 217.632 158.845 217.814 159.032C217.996 159.22 218.096 159.472 218.092 159.734C218.088 159.995 217.98 160.244 217.792 160.426C217.604 160.608 217.351 160.708 217.089 160.704Z" fill="#201000"/>
<path d="M230.735 108.036C231.67 108.532 232.736 108.73 233.788 108.603C234.84 108.475 235.828 108.029 236.617 107.323C236.806 107.145 237.056 107.045 237.316 107.045C237.576 107.045 237.826 107.145 238.014 107.323C238.856 108.083 239.498 109.037 239.887 110.101C240.275 111.165 240.398 112.308 240.243 113.43C239.119 113.781 238.151 114.511 237.506 115.495C237.523 115.354 237.57 115.219 237.642 115.097C238.176 114.21 238.421 113.178 238.342 112.146C238.263 111.114 237.865 110.132 237.201 109.335C236.114 110.079 234.843 110.51 233.527 110.582C232.21 110.655 230.899 110.366 229.737 109.746C228.609 109.153 229.603 107.45 230.735 108.036Z" fill="#201000"/>
<path d="M228.602 114.269C228.707 113.625 228.716 112.97 228.631 112.323C228.86 112.245 229.745 112.473 230.014 112.651C231.212 113.448 232.665 113.645 233.991 113.027C234.717 112.688 235.384 113.109 235.477 113.879C235.666 115.463 235.565 117.069 235.176 118.616C234.874 119.848 232.966 119.327 233.268 118.09C233.5 117.145 233.606 116.173 233.585 115.199C232.099 115.52 229.944 115.089 228.602 114.269Z" fill="#201000"/>
<path d="M245.763 82.6246C246.249 84.3822 246.736 86.1391 247.223 87.8953C247.562 89.1273 245.634 89.5585 245.296 88.3368C244.809 86.5819 244.323 84.825 243.837 83.0661C243.497 81.8382 245.426 81.4029 245.763 82.6246Z" fill="#201000"/>
<path d="M252.932 88.6674L259.905 81.8218C260.811 80.9307 262.21 82.3249 261.303 83.216L254.33 90.0615C253.422 90.9526 252.022 89.5585 252.932 88.6674Z" fill="#201000"/>
</g>
<defs>
<clipPath id="clip0_111_1970">
<rect width="330" height="222" fill="white"/>
</clipPath>
</defs>
</svg>
