<svg width="225" height="142" viewBox="0 0 225 142" fill="none" xmlns="http://www.w3.org/2000/svg">
<g clip-path="url(#clip0_106_1752)">
<path d="M53.5086 115.035C45.1578 115.167 35.2583 115.249 28.9361 115.077C16.2101 114.731 -0.987188 117.148 0.0443042 107.483C0.660335 101.716 8.62432 100.373 14.9436 100.23C15.458 100.217 15.9608 100.214 16.4493 100.217C18.5518 100.222 20.6523 100.344 22.7414 100.58C23.0344 98.4041 23.7813 96.3143 24.9334 94.4472C25.1812 94.0447 25.4491 93.6536 25.7328 93.2784C30.0593 87.5277 38.2554 84.9513 46.5704 87.6297C47.4915 90.9077 47.3125 89.976 48.2007 93.8276C49.7938 100.345 51.5 107.973 53.5086 115.035Z" fill="#FAC9B8"/>
<path d="M224.988 88.8446C224.369 101.015 195.072 98.109 163.03 98.3333C162.582 88.7238 162.027 80.0747 161.358 75.3792C159.824 64.6383 149.987 60.5308 138.485 59.1909C141.493 45.4538 148.37 37.1699 161.358 38.1015C175.803 39.1367 178.55 63.2984 178.55 63.2984C178.55 63.2984 188.865 54.6723 192.303 72.2738C192.313 72.2767 225.677 75.3821 224.988 88.8446Z" fill="#FAC9B8"/>
<path d="M68.3764 134.511C68.3762 136.788 68.1994 139.061 67.8477 141.31H24.4205C24.0688 139.061 23.892 136.788 23.8918 134.511C23.8918 127.179 25.674 120.422 28.6611 115.071C32.734 107.78 39.0476 103.099 46.1391 103.099C47.6415 103.1 49.1364 103.311 50.5803 103.728C60.7333 106.636 68.3764 119.312 68.3764 134.511Z" fill="#3527DD"/>
<path d="M184.415 141.31C184.712 139.456 184.862 137.581 184.862 135.703C184.862 121.411 176.442 109.825 166.059 109.825C155.675 109.825 147.255 121.411 147.255 135.703C147.255 137.581 147.405 139.456 147.702 141.31H184.415Z" fill="#3527DD"/>
<path d="M218.798 132.833C218.798 135.669 218.618 138.503 218.259 141.316H173.935C173.576 138.503 173.396 135.669 173.397 132.833C173.397 111.208 183.56 93.6766 196.097 93.6766C208.634 93.6766 218.798 111.208 218.798 132.833Z" fill="#3527DD"/>
<path d="M172.411 125.401L170.352 128.851C169.897 129.614 171.086 130.31 171.54 129.547C172.227 128.397 172.913 127.247 173.6 126.096C174.056 125.34 172.867 124.637 172.411 125.401Z" fill="#E07F7F"/>
<path d="M48.5588 141.31H47.1763L44.7623 118.602C44.7433 118.42 44.7971 118.237 44.912 118.095C45.0269 117.953 45.1933 117.862 45.3747 117.843C45.5562 117.824 45.7377 117.878 45.8794 117.994C46.0212 118.109 46.1114 118.276 46.1304 118.458L48.5588 141.31Z" fill="#FAC9B8"/>
<path d="M200.561 106.555L195.108 141.31H193.716L199.201 106.34C199.23 106.159 199.329 105.997 199.476 105.889C199.549 105.836 199.632 105.797 199.72 105.776C199.808 105.755 199.899 105.751 199.988 105.765C200.078 105.78 200.163 105.811 200.24 105.859C200.317 105.906 200.384 105.968 200.438 106.041C200.491 106.115 200.529 106.198 200.55 106.286C200.571 106.374 200.575 106.466 200.561 106.555Z" fill="#FAC9B8"/>
<path d="M190.938 125.087C190.805 125.087 190.676 125.049 190.564 124.977C190.453 124.905 190.365 124.803 190.31 124.682L186.872 117.088C186.834 117.005 186.813 116.916 186.81 116.826C186.807 116.735 186.821 116.644 186.853 116.559C186.884 116.474 186.932 116.396 186.994 116.33C187.055 116.263 187.129 116.21 187.212 116.172C187.378 116.096 187.567 116.089 187.738 116.153C187.823 116.184 187.901 116.232 187.967 116.294C188.033 116.356 188.087 116.43 188.124 116.513L191.562 124.107C191.6 124.189 191.621 124.278 191.624 124.369C191.627 124.459 191.612 124.549 191.581 124.634C191.549 124.719 191.501 124.797 191.439 124.863C191.378 124.929 191.304 124.982 191.221 125.02C191.133 125.063 191.036 125.086 190.938 125.087Z" fill="#E07F7F"/>
<path d="M203.32 139.583C203.198 139.583 203.078 139.551 202.972 139.488C202.867 139.426 202.78 139.337 202.72 139.23C202.66 139.123 202.63 139.002 202.633 138.879C202.635 138.757 202.67 138.637 202.734 138.532L209.268 127.832C209.366 127.681 209.518 127.575 209.693 127.536C209.867 127.496 210.05 127.526 210.202 127.62C210.355 127.713 210.465 127.863 210.51 128.037C210.555 128.21 210.53 128.395 210.442 128.551L203.906 139.251C203.845 139.353 203.759 139.436 203.656 139.494C203.554 139.553 203.438 139.583 203.32 139.583Z" fill="#FAC9B8"/>
<path d="M34.7813 137.858C34.6793 137.858 34.5786 137.836 34.4864 137.792C34.3942 137.748 34.3129 137.684 34.2483 137.605L31.1524 133.808C31.0952 133.738 31.0524 133.657 31.0263 133.57C31.0002 133.483 30.9915 133.392 31.0005 133.302C31.0096 133.212 31.0362 133.124 31.079 133.044C31.1218 132.964 31.1798 132.894 31.2498 132.836C31.3198 132.779 31.4004 132.736 31.4869 132.71C31.5735 132.684 31.6643 132.675 31.7542 132.684C31.8441 132.693 31.9314 132.72 32.011 132.763C32.0907 132.806 32.1611 132.864 32.2183 132.934L35.3128 136.729C35.395 136.831 35.447 136.953 35.4628 137.083C35.4785 137.212 35.4574 137.344 35.4018 137.462C35.3462 137.58 35.2584 137.68 35.1486 137.75C35.0387 137.82 34.9114 137.858 34.7813 137.858Z" fill="#E07F7F"/>
<path d="M157.919 7.04033C157.306 7.04033 156.708 6.85812 156.199 6.51674C155.69 6.17535 155.293 5.69013 155.058 5.12243C154.824 4.55473 154.763 3.93005 154.882 3.32738C155.002 2.72472 155.297 2.17113 155.73 1.73664C156.162 1.30214 156.714 1.00624 157.315 0.886358C157.915 0.766481 158.538 0.828007 159.103 1.06316C159.669 1.2983 160.153 1.69652 160.493 2.20743C160.833 2.71835 161.015 3.31903 161.015 3.9335C161.013 4.75713 160.687 5.5467 160.107 6.1291C159.526 6.7115 158.739 7.03919 157.919 7.04033ZM157.919 2.20684C157.579 2.20684 157.246 2.30802 156.964 2.49759C156.681 2.68716 156.46 2.95661 156.33 3.27185C156.2 3.58709 156.166 3.93398 156.233 4.26864C156.299 4.6033 156.463 4.9107 156.703 5.15198C156.943 5.39325 157.25 5.55757 157.583 5.62413C157.917 5.6907 158.262 5.65653 158.577 5.52595C158.891 5.39538 159.159 5.17425 159.348 4.89054C159.537 4.60683 159.638 4.27328 159.638 3.93206C159.638 3.4745 159.457 3.03569 159.134 2.71214C158.812 2.3886 158.375 2.20684 157.919 2.20684Z" fill="#FF98E1"/>
<path d="M25.7371 93.2798C25.4506 93.655 25.1856 94.0461 24.9377 94.4486C25.4109 95.002 25.7622 95.6495 25.9686 96.3486C26.175 97.0477 26.2318 97.7827 26.1355 98.5055C26.0391 99.2282 25.7916 99.9223 25.4092 100.542C25.0269 101.162 24.5183 101.694 23.9168 102.103C23.3153 102.512 22.6344 102.789 21.9189 102.916C21.2033 103.042 20.4691 103.016 19.7645 102.838C19.0599 102.66 18.4007 102.334 17.8301 101.883C17.2596 101.431 16.7905 100.864 16.4537 100.218C15.9652 100.218 15.4623 100.218 14.948 100.231C15.3024 101.132 15.8514 101.943 16.5554 102.606C17.2594 103.269 18.1011 103.767 19.0198 104.064C19.9385 104.361 20.9114 104.451 21.8687 104.326C22.8259 104.201 23.7437 103.865 24.556 103.341C25.3683 102.818 26.055 102.121 26.5667 101.299C27.0783 100.478 27.4023 99.5527 27.5152 98.5906C27.6282 97.6285 27.5273 96.6533 27.2198 95.735C26.9124 94.8168 26.406 93.9782 25.7371 93.2798Z" fill="#FAC9B8"/>
<path d="M78.2773 20.8392L75.8705 17.3887C75.3662 16.6699 74.1728 17.3542 74.6814 18.0846L77.0897 21.535C77.5939 22.2582 78.7873 21.5695 78.2773 20.8392Z" fill="#FF98E1"/>
<path d="M201.458 79.0367L193.547 86.9756C192.921 87.6039 193.893 88.5815 194.519 87.9518L202.43 80.0129C203.058 79.3832 202.085 78.407 201.458 79.0367Z" fill="#FAC9B8"/>
<path d="M202.774 86.9756L194.863 79.0367C194.237 78.407 193.264 79.3832 193.89 80.0129C196.528 82.6601 199.165 85.3064 201.801 87.9518C202.429 88.5801 203.402 87.6053 202.774 86.9756Z" fill="#FAC9B8"/>
<path d="M83.7772 21.8758L81.3689 18.4254C80.8647 17.7066 79.6713 18.3923 80.1813 19.1227L82.5881 22.5731C83.0967 23.2948 84.2901 22.6062 83.7772 21.8758Z" fill="#FF98E1"/>
<path d="M98.6207 11.2887C97.4402 14.4703 101.433 15.931 103.671 16.4184C103.781 16.4444 103.896 16.4409 104.005 16.4083C104.035 16.4241 104.07 16.4313 104.102 16.4471C106.546 11.9069 111.265 10.6619 118.468 12.3454C126.845 14.2992 127.074 19.587 127.074 19.587C127.614 18.8811 128.713 18.1048 130.063 17.5168C130.161 17.3848 130.251 17.247 130.333 17.1042C130.339 17.0952 130.342 17.0847 130.342 17.074C130.78 17.0251 131.169 16.6125 130.915 16.1193C128.432 11.4828 124.388 5.39135 119.365 3.20176C117.801 2.52461 116.172 2.71438 115.309 4.33177C114.88 5.13688 114.857 5.96786 115.043 6.79021C112.749 4.97441 110.245 3.44233 107.586 2.22701C105.072 1.07686 101.397 -0.759061 98.5849 0.333578C96.5276 1.13149 95.7239 3.33402 96.1122 5.43735C96.4846 7.47455 97.9115 8.92517 99.5505 10.0868C99.122 10.3791 98.7966 10.7997 98.6207 11.2887Z" fill="#201000"/>
<path d="M101.828 41.9215C103.648 45.4064 107.494 46.3524 111.51 46.3438L111.735 59.638C111.735 59.638 112.688 63.9511 120.772 62.2661C125.614 61.2598 126.103 58.6417 126.103 58.6417C126.103 58.6417 125.759 53.1196 125.402 40.9108C128.66 38.5817 129.789 32.0748 129.789 32.0748C136.453 31.2467 142.522 27.0199 139.975 20.4612C138.167 15.8102 133.362 16.092 130.062 17.5168C128.713 18.1048 127.614 18.8811 127.074 19.587C127.074 19.587 126.845 14.2992 118.468 12.3454C111.258 10.6619 106.546 11.9069 104.102 16.4471C103.204 18.099 102.615 20.1937 102.307 22.737C101.387 30.4344 99.9888 38.392 101.828 41.9215Z" fill="#FAC9B8"/>
<path d="M117.338 63.3472C111.924 63.3472 111.102 59.9586 111.063 59.789C111.053 59.7417 111.048 59.6935 111.047 59.6452L110.837 47.0223C105.986 46.9001 102.838 45.3316 101.221 42.2377C99.5419 39.0188 100.361 32.6656 101.212 25.9387C101.356 24.8461 101.492 23.7462 101.623 22.6493C101.947 19.9738 102.56 17.8359 103.497 16.1121C106.065 11.3448 111.014 9.89128 118.624 11.6683C124.881 13.1275 126.855 16.3882 127.477 18.2284C128.188 17.6823 128.965 17.2287 129.789 16.8784C131.031 16.3422 134.23 15.2294 137.118 16.4471C138.731 17.1243 139.908 18.3909 140.615 20.211C141.579 22.6939 141.446 25.0905 140.229 27.1377C138.547 29.9671 134.883 32.0259 130.368 32.6915C130.035 34.2571 128.829 39.0259 126.1 41.2443C126.449 53.0577 126.786 58.5439 126.789 58.5986C126.793 58.6558 126.79 58.7133 126.779 58.7697C126.756 58.8947 126.146 61.8549 120.905 62.9389C119.733 63.1959 118.538 63.3327 117.338 63.3472ZM112.43 59.5403C112.573 59.9931 113.795 63.0123 120.639 61.5904C124.518 60.7839 125.295 58.9594 125.417 58.5713C125.366 57.7245 125.047 52.0801 124.722 40.9294C124.719 40.8174 124.744 40.7066 124.794 40.6064C124.844 40.5062 124.918 40.4197 125.008 40.3544C127.997 38.2194 129.106 32.0244 129.117 31.9612C129.142 31.8154 129.214 31.6817 129.32 31.5797C129.427 31.4777 129.564 31.4129 129.71 31.3947C133.969 30.8656 137.549 28.9665 139.054 26.4361C140.057 24.744 140.155 22.8189 139.34 20.717C138.767 19.2607 137.85 18.2543 136.595 17.7267C134.926 17.0265 132.584 17.1861 130.342 18.158C129.144 18.6798 128.103 19.3915 127.62 20.014C127.534 20.1262 127.416 20.2092 127.281 20.2516C127.146 20.294 127.002 20.2939 126.868 20.2512C126.733 20.2085 126.615 20.1253 126.529 20.0129C126.443 19.9006 126.394 19.7644 126.388 19.623C126.376 19.4332 126.024 14.824 118.315 13.024C111.295 11.385 106.97 12.5797 104.705 16.7821C103.864 18.3305 103.287 20.3634 102.986 22.8204C102.856 23.9188 102.714 25.0243 102.575 26.127C101.78 32.345 100.959 38.7787 102.431 41.6095C103.856 44.3411 106.807 45.6623 111.448 45.6623C111.467 45.6608 111.486 45.6608 111.504 45.6623C111.685 45.6623 111.858 45.7334 111.987 45.8603C112.115 45.9873 112.189 46.1599 112.192 46.3409L112.43 59.5403Z" fill="#201000"/>
<path d="M109.241 33.1502C109.131 33.1509 109.023 33.1252 108.925 33.0751C108.827 33.0251 108.743 32.9522 108.679 32.8626C106.156 29.2914 107.694 25.3436 111.204 19.7308C111.303 19.5806 111.456 19.4751 111.632 19.437C111.807 19.3989 111.99 19.4312 112.143 19.5269C112.295 19.6226 112.403 19.7742 112.446 19.9494C112.488 20.1245 112.46 20.3092 112.368 20.4641C108.643 26.4319 107.967 29.4668 109.801 32.0647C109.874 32.1679 109.917 32.2893 109.926 32.4156C109.935 32.5419 109.909 32.6682 109.852 32.7808C109.794 32.8933 109.706 32.9877 109.598 33.0536C109.491 33.1195 109.367 33.1544 109.241 33.1545V33.1502Z" fill="#201000"/>
<path d="M121.358 22.77C121.833 22.77 122.217 22.3838 122.217 21.9074C122.217 21.431 121.833 21.0448 121.358 21.0448C120.883 21.0448 120.498 21.431 120.498 21.9074C120.498 22.3838 120.883 22.77 121.358 22.77Z" fill="#201000"/>
<path d="M107.162 22.4739C107.637 22.4739 108.022 22.0877 108.022 21.6113C108.022 21.1349 107.637 20.7487 107.162 20.7487C106.687 20.7487 106.302 21.1349 106.302 21.6113C106.302 22.0877 106.687 22.4739 107.162 22.4739Z" fill="#201000"/>
<path d="M115.582 36.7789C117.352 36.9227 118.758 35.5008 118.527 33.7181C118.414 32.8397 119.769 32.5953 119.882 33.4794C120.228 36.155 118.146 38.3834 115.453 38.1548C114.579 38.0728 114.703 36.6984 115.582 36.7789Z" fill="#201000"/>
<path d="M120.292 17.4103C120.358 17.2406 120.487 17.1032 120.652 17.027C120.817 16.9509 121.005 16.9419 121.176 17.002L122.285 17.3212C122.642 17.4247 122.812 17.8776 122.69 18.2097C122.624 18.3789 122.495 18.5158 122.33 18.5916C122.165 18.6675 121.977 18.6764 121.806 18.6166L120.697 18.2974C120.341 18.1939 120.166 17.741 120.292 17.4103Z" fill="#201000"/>
<path d="M107.622 16.2732L108.468 16.1294C109.341 15.9756 109.582 17.3342 108.708 17.4895L107.861 17.6333C106.986 17.7871 106.749 16.427 107.622 16.2732Z" fill="#201000"/>
<path d="M129.283 26.8962C129.217 26.8958 129.151 26.8861 129.087 26.8675C129 26.8416 128.919 26.7988 128.849 26.7413C128.778 26.6839 128.72 26.6131 128.677 26.5329C128.634 26.4527 128.607 26.3647 128.598 26.2741C128.589 26.1835 128.598 26.092 128.624 26.0049C129.139 24.2667 131.962 21.0032 134.879 21.0032H134.969C135.06 21.0053 135.149 21.0253 135.231 21.062C135.314 21.0987 135.389 21.1514 135.451 21.217C135.513 21.2826 135.562 21.3599 135.595 21.4444C135.627 21.529 135.643 21.6192 135.641 21.7098C135.638 21.8004 135.619 21.8897 135.582 21.9726C135.545 22.0555 135.493 22.1304 135.428 22.1929C135.362 22.2555 135.285 22.3045 135.201 22.3371C135.117 22.3698 135.027 22.3855 134.936 22.3833H134.876C132.621 22.3833 130.292 25.2256 129.942 26.3988C129.901 26.5419 129.814 26.6677 129.695 26.7573C129.576 26.847 129.432 26.8957 129.283 26.8962Z" fill="#201000"/>
<path d="M87.409 109.899C87.3108 109.899 87.2137 109.878 87.1243 109.838C87.0348 109.797 86.9551 109.738 86.8903 109.664C85.091 107.599 76.4895 107.391 73.3262 107.483H73.3062C73.1238 107.485 72.9478 107.415 72.817 107.288C72.6861 107.16 72.6111 106.986 72.6085 106.803C72.6058 106.62 72.6757 106.443 72.8028 106.312C72.9299 106.18 73.1037 106.105 73.2861 106.102C74.5167 106.068 85.3775 105.832 87.9261 108.754C88.0143 108.853 88.0717 108.977 88.0917 109.108C88.1116 109.24 88.0932 109.375 88.0385 109.497C87.9838 109.618 87.8953 109.721 87.7836 109.793C87.6719 109.866 87.5418 109.904 87.409 109.904V109.899Z" fill="#201000"/>
<path d="M71.8378 139.724C68.5728 139.724 65.4511 138.759 62.8824 136.537C59.3008 133.439 56.1075 126.666 52.854 115.225C51.3498 109.937 50.0403 104.442 48.7753 99.1225C48.3556 97.3585 47.9458 95.639 47.5433 93.99C46.9072 91.2296 46.827 90.9522 46.4846 89.7848C46.3513 89.3276 46.1794 88.7367 45.9201 87.8137C45.7267 87.1207 45.4903 86.2437 45.168 85.0821C43.5792 79.2379 41.4173 73.8236 39.9876 70.2409C39.4747 68.9585 39.0707 67.9406 38.8415 67.2721C38.6295 66.7157 38.0263 65.3643 37.3272 63.7986C35.0679 58.7408 33.0293 54.0684 32.8445 52.4769C32.7012 51.2016 33.1969 50.5676 33.6396 50.2614C34.2857 49.81 35.1224 49.8301 35.7886 49.9465C35.78 49.8028 35.7757 49.682 35.7714 49.5727C35.7523 49.0675 35.8878 48.5685 36.1595 48.1426C36.4312 47.7168 36.8261 47.3846 37.2914 47.1905C37.8739 46.9384 38.5124 46.8452 39.1423 46.9202C39.1622 46.3927 39.3317 45.8818 39.6309 45.4476C39.9301 45.0133 40.3466 44.6738 40.8314 44.469C42.8829 43.5762 44.2038 45.3316 47.3928 50.5892C46.1866 47.3961 45.4874 44.7666 46.2209 43.2455C46.3621 42.9512 46.5652 42.6913 46.8163 42.4835C47.0673 42.2757 47.3603 42.1251 47.6751 42.0422C50.2753 41.2888 52.546 46.6657 55.4585 54.343C56.3554 56.7022 57.2078 58.9436 57.7665 59.8579C58.4155 59.8134 60.1246 59.3533 60.9756 55.9115C62.5773 49.4577 63.3652 48.1121 65.4783 48.3363C67.5327 48.5621 67.3092 51.748 66.9367 57.0243C66.5958 61.8491 66.1316 68.4567 67.3665 74.7078C67.6803 76.2892 68.1545 78.7865 68.729 81.8157C70.8077 92.7794 74.289 111.13 76.0282 116.583C76.0839 116.758 76.0682 116.947 75.9846 117.11C75.9011 117.273 75.7565 117.396 75.5827 117.452C75.4088 117.507 75.22 117.492 75.0577 117.408C74.8955 117.324 74.773 117.179 74.7174 117.004C72.9524 111.471 69.4625 93.0684 67.3766 82.0687C66.8035 79.0496 66.3293 76.548 66.017 74.9737C64.7377 68.543 65.2119 61.8276 65.5571 56.9236C65.7692 53.9045 66.06 49.787 65.3236 49.7064C64.5629 49.6245 63.9626 49.5627 62.3036 56.2422C60.9412 61.7514 57.4327 61.2395 57.2794 61.2151C57.1106 61.188 56.9576 61.0994 56.8496 60.9664C56.1691 60.1153 55.2838 57.7834 54.1606 54.8318C52.6893 50.9615 49.6435 42.912 48.0433 43.3663C47.9144 43.3954 47.7938 43.4534 47.6906 43.5361C47.5873 43.6188 47.5041 43.7239 47.4473 43.8436C46.6937 45.4049 48.5017 49.797 50.2495 54.0439C50.781 55.3379 51.3297 56.6677 51.8254 57.9731C51.8887 58.134 51.8895 58.3129 51.8276 58.4743C51.7658 58.6358 51.6457 58.768 51.4913 58.8449C51.3369 58.9217 51.1594 58.9376 50.9938 58.8893C50.8283 58.841 50.6869 58.7321 50.5976 58.5841C49.377 56.5944 48.3341 54.8562 47.4315 53.351C43.7224 47.1689 42.4904 45.2367 41.3658 45.7313C40.6151 46.0619 40.3214 46.8311 40.6007 47.744C40.6443 47.8888 40.6394 48.044 40.5867 48.1857C40.534 48.3274 40.4364 48.4479 40.309 48.5287C40.1815 48.6095 40.0312 48.646 39.881 48.6328C39.7308 48.6197 39.5891 48.5574 39.4776 48.4557C39.3142 48.3119 38.522 48.1451 37.8315 48.4557C37.6133 48.5374 37.4271 48.6876 37.3006 48.8839C37.1742 49.0802 37.1142 49.3122 37.1295 49.5454C37.1365 49.9529 37.1797 50.359 37.2584 50.7588C37.2857 50.8865 37.2764 51.0193 37.2315 51.1418C37.1866 51.2644 37.1079 51.3716 37.0047 51.4511C36.9015 51.5306 36.778 51.579 36.6484 51.5909C36.5188 51.6027 36.3886 51.5774 36.2728 51.5179C35.9863 51.3828 34.8516 51.0794 34.4003 51.4015C34.164 51.5711 34.1582 51.9967 34.194 52.323C34.3674 53.834 36.9948 59.7199 38.565 63.2379C39.3014 64.8869 39.8844 66.1895 40.1165 66.8034C40.3457 67.4647 40.744 68.4639 41.2497 69.7305C42.6924 73.342 44.8714 78.8009 46.4803 84.7198C46.7969 85.8699 47.0375 86.7469 47.2295 87.4356C47.486 88.3514 47.6593 88.938 47.7911 89.3923C48.1335 90.5611 48.2209 90.8745 48.8684 93.6651C49.2681 95.3083 49.6793 97.0307 50.0991 98.7976C51.3612 104.098 52.6663 109.58 54.1634 114.838C57.3453 126.009 60.3997 132.569 63.7735 135.484C70.2533 141.091 80.7416 137.801 87.1425 131.377C87.2715 131.247 87.4465 131.175 87.6289 131.175C87.8113 131.175 87.9863 131.247 88.1153 131.377C88.2443 131.506 88.3168 131.682 88.3168 131.865C88.3168 132.048 88.2443 132.224 88.1153 132.353C83.7587 136.74 77.5797 139.724 71.8378 139.724Z" fill="#201000"/>
<path d="M57.5974 60.1527C58.414 59.8335 59.0587 61.0555 58.2349 61.3776C54.023 63.0223 51.8397 67.2146 52.9485 71.6311C53.1648 72.4937 51.8196 72.7813 51.6033 71.9187C50.3583 66.9701 52.8325 62.0145 57.5974 60.1527Z" fill="#201000"/>
<path d="M46.5921 61.0756C46.4675 61.0759 46.3452 61.0422 46.2382 60.9781C46.1312 60.9141 46.0436 60.822 45.9846 60.7119L39.343 48.2802C39.2567 48.1189 39.2379 47.9298 39.2905 47.7546C39.3432 47.5793 39.463 47.4323 39.6238 47.3457C39.7845 47.2592 39.9729 47.2402 40.1475 47.2931C40.3222 47.3459 40.4687 47.4662 40.555 47.6275L47.1966 60.0548C47.2393 60.135 47.2658 60.2229 47.2745 60.3133C47.2832 60.4038 47.2739 60.4951 47.2473 60.582C47.2207 60.6688 47.1772 60.7496 47.1193 60.8195C47.0614 60.8894 46.9903 60.9471 46.9101 60.9893C46.8128 61.0439 46.7035 61.0735 46.5921 61.0756Z" fill="#201000"/>
<path d="M42.6939 63.6046C42.5693 63.6049 42.447 63.5712 42.34 63.5071C42.233 63.443 42.1454 63.351 42.0865 63.2408L35.4448 50.8121C35.3585 50.6508 35.3397 50.4617 35.3923 50.2864C35.445 50.1112 35.5649 49.9641 35.7256 49.8776C35.8863 49.791 36.0747 49.7721 36.2493 49.8249C36.424 49.8778 36.5705 49.9981 36.6568 50.1594L43.2985 62.5881C43.3412 62.6683 43.3676 62.7561 43.3763 62.8466C43.385 62.9371 43.3758 63.0284 43.3491 63.1153C43.3225 63.2021 43.279 63.2829 43.2211 63.3528C43.1633 63.4227 43.0922 63.4804 43.0119 63.5226C42.9142 63.5756 42.805 63.6038 42.6939 63.6046Z" fill="#201000"/>
<path d="M34.0135 67.4331L30.9219 62.2574C30.4677 61.4969 29.2772 62.1899 29.7342 62.9547C30.7638 64.6799 31.7944 66.4052 32.8258 68.1304C33.28 68.8924 34.4705 68.198 34.0135 67.4331Z" fill="#201000"/>
<path d="M72.2977 52.4179C71.9835 54.4939 71.6702 56.5694 71.3579 58.6445C71.2275 59.5071 72.5527 59.8895 72.6845 59.0125C72.9978 56.9365 73.3111 54.8605 73.6243 52.7845C73.7562 51.9161 72.4309 51.5409 72.2977 52.4179Z" fill="#201000"/>
<path d="M73.3062 109.554C73.1316 109.554 72.9636 109.487 72.8363 109.367C72.7089 109.248 72.6316 109.084 72.62 108.909C72.6099 108.754 71.5999 93.1576 72.9652 79.1128C74.3047 65.3413 80.2201 59.1621 111.731 58.9479C111.908 58.956 112.075 59.0323 112.198 59.161C112.32 59.2896 112.388 59.4607 112.388 59.6387C112.388 59.8166 112.32 59.9877 112.198 60.1164C112.075 60.2451 111.908 60.3214 111.731 60.3295C81.0868 60.5365 75.6056 66.0802 74.3248 79.2465C72.971 93.1806 73.9724 108.663 73.9824 108.818C73.9942 109.001 73.9334 109.181 73.8134 109.318C73.6934 109.456 73.5239 109.54 73.342 109.553L73.3062 109.554Z" fill="#201000"/>
<path d="M164.454 142C164.274 142 164.101 141.929 163.972 141.802C163.844 141.676 163.769 141.504 163.765 141.323C163.765 141.1 163.294 118.764 162.343 98.3677C161.83 87.3623 161.27 79.662 160.676 75.4798C159.406 66.5806 152.121 61.4768 138.406 59.8795C134.848 59.464 130.828 59.2829 126.11 59.3318C125.928 59.3327 125.752 59.2609 125.623 59.1322C125.493 59.0034 125.42 58.8283 125.419 58.6453C125.418 58.4622 125.489 58.2863 125.618 58.1562C125.746 58.0261 125.92 57.9525 126.103 57.9516C130.876 57.9013 134.955 58.0853 138.567 58.508C152.987 60.1886 160.666 65.6763 162.039 75.2843C162.639 79.5096 163.202 87.2544 163.716 98.3045C164.669 118.72 165.136 141.071 165.149 141.291C165.153 141.474 165.083 141.651 164.957 141.784C164.83 141.916 164.657 141.992 164.474 141.996L164.454 142Z" fill="#201000"/>
<path d="M147.256 142C147.08 142 146.91 141.932 146.783 141.81C146.655 141.688 146.579 141.522 146.569 141.346L143.817 88.5354C143.808 88.3525 143.871 88.1733 143.993 88.0372C144.115 87.901 144.286 87.819 144.468 87.8093C144.65 87.7996 144.829 87.8629 144.964 87.9853C145.1 88.1077 145.182 88.2792 145.191 88.462L147.943 141.272C147.951 141.454 147.886 141.632 147.764 141.766C147.642 141.901 147.472 141.982 147.291 141.991L147.256 142Z" fill="#201000"/>
<path d="M87.7527 142C87.5717 142 87.3979 141.929 87.269 141.801C87.14 141.674 87.0663 141.5 87.0636 141.319L86.376 87.4716C86.3815 87.2935 86.4554 87.1245 86.5821 86.9997C86.7088 86.8749 86.8786 86.804 87.0561 86.8018C87.2336 86.7996 87.4051 86.8662 87.5349 86.9878C87.6647 87.1093 87.7427 87.2765 87.7527 87.4543L88.4403 141.3C88.4426 141.483 88.3724 141.66 88.2451 141.791C88.1178 141.922 87.9438 141.997 87.7613 142H87.7527Z" fill="#201000"/>
<path d="M154.886 111.801C152.035 111.801 148.919 111.32 145.395 110.575C145.216 110.537 145.06 110.429 144.96 110.276C144.861 110.122 144.826 109.935 144.864 109.756C144.902 109.576 145.01 109.42 145.163 109.32C145.316 109.22 145.502 109.186 145.681 109.224C152.724 110.712 158.038 111.126 162.757 108.6C162.918 108.514 163.106 108.495 163.28 108.548C163.455 108.602 163.601 108.722 163.687 108.884C163.773 109.045 163.791 109.234 163.738 109.409C163.685 109.584 163.565 109.731 163.404 109.817C160.755 111.235 157.976 111.801 154.886 111.801Z" fill="#201000"/>
<path d="M110.453 56.0538L107.357 59.8508L115.268 70.205L118.708 62.2661L110.453 56.0538Z" fill="#FAC9B8"/>
<path d="M115.268 70.8951C115.162 70.8952 115.058 70.8709 114.963 70.824C114.869 70.7771 114.786 70.7089 114.722 70.6248L106.811 60.2735C106.716 60.1492 106.665 59.9963 106.668 59.8397C106.671 59.683 106.726 59.5318 106.825 59.4109L109.92 55.6154C110.032 55.4771 110.193 55.3879 110.369 55.3665C110.546 55.345 110.724 55.393 110.865 55.5004L119.12 61.7126C119.244 61.806 119.333 61.9384 119.373 62.0886C119.412 62.2388 119.401 62.398 119.339 62.5407L115.901 70.4796C115.853 70.5897 115.777 70.6854 115.682 70.7572C115.586 70.8291 115.473 70.8746 115.354 70.8893C115.325 70.8927 115.297 70.8946 115.268 70.8951ZM108.235 59.8637L115.103 68.855L117.859 62.4918L110.567 57.0027L108.235 59.8637Z" fill="#201000"/>
<path d="M118.708 62.2661L123.523 69.8599L129.714 58.8157L126.619 54.6737L118.708 62.2661Z" fill="#FAC9B8"/>
<path d="M123.523 70.55C123.408 70.5486 123.296 70.5187 123.196 70.463C123.096 70.4073 123.011 70.3275 122.95 70.2308L118.135 62.637C118.049 62.5022 118.013 62.3419 118.032 62.1834C118.051 62.0248 118.124 61.8778 118.239 61.7672L126.143 54.1748C126.213 54.1075 126.297 54.0559 126.389 54.0235C126.48 53.991 126.578 53.9783 126.675 53.9863C126.772 53.9944 126.866 54.0228 126.951 54.0699C127.036 54.117 127.11 54.1817 127.169 54.2596L130.265 58.4016C130.345 58.5088 130.392 58.6372 130.401 58.771C130.409 58.9048 130.379 59.0382 130.313 59.1549L124.123 70.1992C124.065 70.3022 123.983 70.3887 123.882 70.4504C123.782 70.512 123.667 70.5468 123.55 70.5514L123.523 70.55ZM119.593 62.3696L123.488 68.5128L128.896 58.8645L126.535 55.7016L119.593 62.3696Z" fill="#201000"/>
<path d="M118.708 88.1531C118.525 88.1531 118.35 88.0804 118.221 87.9509C118.092 87.8215 118.02 87.646 118.02 87.463V62.2661C118.02 62.0831 118.092 61.9076 118.221 61.7782C118.35 61.6488 118.525 61.576 118.708 61.576C118.89 61.576 119.065 61.6488 119.194 61.7782C119.323 61.9076 119.395 62.0831 119.395 62.2661V87.463C119.396 87.5536 119.378 87.6435 119.343 87.7273C119.309 87.8111 119.258 87.8872 119.194 87.9514C119.131 88.0155 119.055 88.0663 118.971 88.1009C118.888 88.1355 118.798 88.1533 118.708 88.1531Z" fill="#201000"/>
<path d="M87.005 61.7485C86.7101 62.0475 86.3867 62.3167 86.0394 62.5522C85.7242 62.7669 85.372 62.921 85.0007 63.0065V87.4629C85.0007 88.3781 85.363 89.2557 86.0078 89.9028C86.6526 90.5499 87.5271 90.9134 88.439 90.9134C89.3509 90.9134 90.2255 90.5499 90.8703 89.9028C91.5151 89.2557 91.8773 88.3781 91.8773 87.4629V61.7485H87.005Z" fill="#201000"/>
<path d="M144.883 59.8507H140.034V87.4629C140.034 88.378 140.396 89.2556 141.041 89.9027C141.686 90.5498 142.56 90.9133 143.472 90.9133C144.384 90.9133 145.258 90.5498 145.903 89.9027C146.548 89.2556 146.91 88.378 146.91 87.4629V60.6256C146.178 60.5544 145.477 60.2867 144.883 59.8507Z" fill="#201000"/>
<path d="M87.4089 90.6919V107.26C87.4089 108.148 88.7843 108.15 88.7843 107.26V90.6919C88.7914 89.7963 87.4089 89.7948 87.4089 90.6919Z" fill="#201000"/>
<path d="M142.955 90.6129L143.763 107.162C143.806 108.049 145.18 107.983 145.137 107.094L144.329 90.5482C144.286 89.6583 142.912 89.7244 142.955 90.6129Z" fill="#201000"/>
</g>
<defs>
<clipPath id="clip0_106_1752">
<rect width="225" height="142" fill="white"/>
</clipPath>
</defs>
</svg>
