<svg width="176" height="155" viewBox="0 0 176 155" fill="none" xmlns="http://www.w3.org/2000/svg">
<g clip-path="url(#clip0_106_1872)">
<path d="M71.7294 93.713C72.0304 92.3207 72.4329 90.9523 72.9338 89.6187C73.2613 84.0147 77.7087 80.188 82.3046 77.4212V57.3303C82.3046 54.6531 81.2404 52.0855 79.3461 50.1924C77.4519 48.2994 74.8827 47.2358 72.2038 47.2358C69.5249 47.2358 66.9557 48.2994 65.0615 50.1924C63.1672 52.0855 62.103 54.6531 62.103 57.3303V131.872C62.1048 134.499 63.1315 137.022 64.965 138.905C66.7985 140.788 69.2943 141.882 71.9222 141.955C69.4904 136.929 69.2394 131.185 69.0358 125.224C68.6685 114.755 69.5026 103.974 71.7294 93.713Z" fill="#E07F7F"/>
<path d="M174.111 51.4511C173.197 50.1733 171.997 49.1267 170.606 48.3946C169.215 47.6625 167.673 47.2652 166.101 47.2343C164.124 47.193 162.18 47.7432 160.518 48.8143C159.067 49.7514 157.874 51.0372 157.048 52.554C156.222 54.0707 155.79 55.7702 155.791 57.497V79.6359C162.093 88.779 161.453 104.337 161.022 110.803C160.605 116.979 160.501 124.344 160.41 130.533C160.286 138.806 158.213 143.931 155.791 150.095V150.782H175.992V57.3318C175.998 55.2229 175.34 53.1655 174.111 51.4511Z" fill="#E07F7F"/>
<path d="M83.2044 77.0161C90.8183 74.1758 99.2509 73.8042 107.29 73.4616C107.486 73.4599 107.677 73.5246 107.832 73.6451C107.021 70.4501 106.148 67.2611 106.257 63.9636C102.508 65.045 98.0296 66.1844 95.3667 62.7783C93.1047 59.8846 92.765 55.1448 91.5131 51.6377H77.8923V79.8899C79.5102 78.6733 81.3006 77.7046 83.2044 77.0161Z" fill="#E07F7F"/>
<path d="M123.121 51.6377C122.548 52.5707 121.956 53.4883 121.332 54.3907C122.241 60.1935 123.321 65.9703 124.119 71.7868C124.215 71.9596 124.312 72.1325 124.414 72.3007C127.836 71.6002 131.332 72.7228 134.64 72.6586C141.738 72.7228 153.552 76.4532 155.791 79.639C162.858 89.6998 160.723 110.266 160.434 116.652C160.145 123.037 160.145 129.443 159.468 135.81C158.92 140.96 157.255 145.86 154.877 150.418H166.814V51.6377H123.121Z" fill="#E07F7F"/>
<path d="M157.26 76.6076C157.065 76.6076 156.878 76.5303 156.741 76.3926C156.603 76.2549 156.525 76.0682 156.525 75.8735V53.8493C156.525 53.6545 156.603 53.4678 156.741 53.3301C156.878 53.1925 157.065 53.1151 157.26 53.1151C157.455 53.1151 157.642 53.1925 157.779 53.3301C157.917 53.4678 157.995 53.6545 157.995 53.8493V75.8735C157.995 75.9699 157.976 76.0655 157.939 76.1547C157.902 76.2438 157.848 76.3248 157.78 76.393C157.712 76.4613 157.631 76.5153 157.541 76.5522C157.452 76.589 157.357 76.6078 157.26 76.6076Z" fill="white"/>
<path d="M80.4681 73.3025C80.3715 73.3027 80.2758 73.2839 80.1865 73.2471C80.0972 73.2102 80.016 73.1562 79.9476 73.088C79.8793 73.0198 79.825 72.9388 79.788 72.8496C79.751 72.7605 79.7319 72.6649 79.7319 72.5684V53.8417C79.7406 53.6526 79.8218 53.474 79.9588 53.3433C80.0957 53.2125 80.2779 53.1395 80.4673 53.1395C80.6567 53.1395 80.8388 53.2125 80.9758 53.3433C81.1128 53.474 81.194 53.6526 81.2027 53.8417V72.5668C81.2031 72.6634 81.1843 72.7591 81.1476 72.8485C81.1108 72.9378 81.0568 73.019 80.9885 73.0874C80.9202 73.1557 80.8391 73.21 80.7498 73.2469C80.6605 73.2838 80.5647 73.3027 80.4681 73.3025Z" fill="white"/>
<path d="M29.6947 1.12416C26.6339 -0.454245 23.1139 -0.365538 20.2765 1.36122C16.5576 3.62482 12.1255 9.69678 12.1255 25.7714V84.6786C12.3867 84.6345 12.6546 84.65 12.909 84.7239C13.1634 84.7978 13.3978 84.9281 13.5947 85.1053V25.7653C13.5947 10.3728 17.6442 4.67709 21.0402 2.60926C24.4959 0.507784 27.774 1.77877 29.0198 2.4242C29.106 2.4734 29.2013 2.50467 29.2999 2.51612C29.3986 2.52756 29.4985 2.51895 29.5937 2.4908C29.6889 2.46266 29.7774 2.41556 29.8539 2.35233C29.9305 2.28911 29.9934 2.21107 30.0389 2.1229C30.0845 2.03474 30.1117 1.93828 30.119 1.83933C30.1263 1.74037 30.1135 1.64097 30.0813 1.54709C30.0492 1.45322 29.9983 1.36682 29.9319 1.29308C29.8655 1.21935 29.7848 1.15981 29.6947 1.11804V1.12416Z" fill="#E07F7F"/>
<path d="M72.1868 17.8335L47.6694 43.6691L34.3716 14.458L42.2946 6.10864L72.1868 17.8335Z" fill="#E07F7F"/>
<path d="M29.3581 1.77719C28.8433 2.31945 28.4405 2.95774 28.1725 3.65561C27.9046 4.35348 27.7769 5.09726 27.7967 5.84447C27.8164 6.59167 27.9833 7.32767 28.2877 8.01043C28.5921 8.69319 29.0281 9.30933 29.5708 9.82367L35.2135 15.1768L43.0523 6.9177L37.4096 1.56459C36.3136 0.525984 34.8497 -0.0350714 33.3398 0.00479584C31.8299 0.0446631 30.3977 0.682191 29.3581 1.77719Z" fill="#E07F7F"/>
<path d="M33.6616 16.2077C33.5181 16.2071 33.3779 16.1646 33.2583 16.0854C33.1386 16.0063 33.0447 15.8939 32.9881 15.7621C32.9315 15.6303 32.9147 15.4848 32.9398 15.3436C32.9648 15.2024 33.0306 15.0716 33.129 14.9673L42.9895 4.57611C43.1237 4.43414 43.3088 4.35123 43.5041 4.34564C43.6994 4.34005 43.8889 4.41222 44.031 4.54629C44.1731 4.68035 44.256 4.86532 44.2616 5.06051C44.2672 5.25569 44.195 5.44511 44.0608 5.58708L34.1957 15.9767C34.1273 16.0497 34.0445 16.1078 33.9527 16.1475C33.8608 16.1873 33.7617 16.2077 33.6616 16.2077Z" fill="white"/>
<path d="M36.1945 32.6846C36.098 32.6848 36.0025 32.6659 35.9134 32.6289C35.8243 32.5918 35.7435 32.5375 35.6757 32.4689L27.3563 24.1563C27.2881 24.0881 27.234 24.0072 27.197 23.9181C27.1601 23.829 27.1411 23.7335 27.1411 23.637C27.1411 23.5406 27.1601 23.4451 27.197 23.356C27.234 23.2669 27.2881 23.186 27.3563 23.1178C27.4246 23.0496 27.5056 22.9955 27.5947 22.9586C27.6839 22.9217 27.7794 22.9027 27.8759 22.9027C27.9724 22.9027 28.068 22.9217 28.1571 22.9586C28.2462 22.9955 28.3273 23.0496 28.3955 23.1178L36.7149 31.4243C36.8172 31.5273 36.8868 31.6582 36.9149 31.8006C36.943 31.943 36.9283 32.0905 36.8726 32.2246C36.817 32.3586 36.7229 32.4733 36.6023 32.554C36.4816 32.6348 36.3397 32.6781 36.1945 32.6785V32.6846Z" fill="#3527DD"/>
<path d="M27.8751 32.6846C27.7299 32.6842 27.588 32.6409 27.4674 32.5602C27.3467 32.4794 27.2526 32.3648 27.197 32.2307C27.1414 32.0966 27.1267 31.9491 27.1548 31.8067C27.1828 31.6643 27.2524 31.5334 27.3548 31.4304L35.6803 23.1178C35.7485 23.0496 35.8295 22.9955 35.9187 22.9586C36.0078 22.9217 36.1034 22.9027 36.1999 22.9027C36.2963 22.9027 36.3919 22.9217 36.481 22.9586C36.5702 22.9955 36.6512 23.0496 36.7194 23.1178C36.7877 23.186 36.8418 23.2669 36.8787 23.356C36.9156 23.4451 36.9346 23.5406 36.9346 23.637C36.9346 23.7335 36.9156 23.829 36.8787 23.9181C36.8418 24.0072 36.7877 24.0881 36.7194 24.1563L28.3955 32.4689C28.3272 32.5374 28.2461 32.5917 28.1568 32.6287C28.0675 32.6657 27.9718 32.6847 27.8751 32.6846Z" fill="#3527DD"/>
<path d="M80.1925 136.039C76.8321 135.47 73.3861 135.67 70.1147 136.627C68.9899 136.957 67.8932 137.375 66.835 137.879C66.3004 138.132 65.779 138.405 65.2709 138.699C65.1607 138.762 65.052 138.826 64.9449 138.89C60.4216 141.597 56.9914 145.804 55.2512 150.777H56.8138C58.4012 146.566 61.2977 142.975 65.0781 140.53C65.4127 140.313 65.755 140.105 66.105 139.907C66.284 139.805 66.4661 139.705 66.6498 139.601C70.9686 137.321 75.9492 136.622 80.7297 137.624L80.1925 136.039Z" fill="white"/>
<path d="M49.8702 76.6044C49.0132 75.1362 48.1557 73.6674 47.2976 72.1981C46.8216 71.3814 45.5514 72.1201 46.0289 72.9399L48.6015 77.3462C49.0775 78.1614 50.3477 77.4227 49.8702 76.6044Z" fill="#E07F7F"/>
<path d="M77.7439 1.54629L75.5386 4.11731C74.9264 4.83157 75.961 5.87466 76.5777 5.15581L78.783 2.58479C79.3952 1.87207 78.3606 0.83509 77.7439 1.54629Z" fill="#E07F7F"/>
<path d="M154.788 38.0484L151.85 42.4548C151.324 43.244 152.595 43.9842 153.119 43.1966L156.057 38.7902C156.584 38.001 155.312 37.2653 154.788 38.0484Z" fill="#E07F7F"/>
<path d="M157.361 40.6194C156.871 41.5982 156.381 42.5771 155.89 43.5559C155.469 44.4002 156.736 45.1435 157.16 44.2977L158.63 41.3596C159.052 40.5169 157.785 39.772 157.361 40.6194Z" fill="#E07F7F"/>
<path d="M4.04184 49.0681C3.24244 49.0681 2.46099 49.305 1.79632 49.7489C1.13164 50.1927 0.613585 50.8236 0.307667 51.5616C0.0017499 52.2997 -0.0782902 53.1119 0.0776652 53.8954C0.233621 54.679 0.618568 55.3987 1.18383 55.9636C1.74909 56.5285 2.46928 56.9132 3.25332 57.0691C4.03736 57.2249 4.85004 57.1449 5.58859 56.8392C6.32714 56.5335 6.95839 56.0158 7.40252 55.3515C7.84664 54.6873 8.08369 53.9063 8.08369 53.1074C8.08247 52.0365 7.65625 51.0098 6.89852 50.2525C6.14079 49.4953 5.11343 49.0693 4.04184 49.0681ZM4.04184 55.6769C3.53296 55.6769 3.03551 55.5261 2.61241 55.2435C2.18931 54.9609 1.85956 54.5593 1.66489 54.0894C1.47022 53.6195 1.41936 53.1025 1.51875 52.6037C1.61814 52.105 1.86332 51.6469 2.22326 51.2874C2.5832 50.9279 3.04174 50.6831 3.54089 50.5841C4.04003 50.485 4.55735 50.5362 5.02741 50.731C5.49747 50.9258 5.89916 51.2556 6.18166 51.6786C6.46416 52.1016 6.61478 52.5988 6.61448 53.1074C6.61327 53.7888 6.34179 54.4418 5.85954 54.9235C5.3773 55.4052 4.72364 55.6761 4.04184 55.6769Z" fill="#E07F7F"/>
<path d="M119.983 26.3878C120.069 26.0946 120.233 25.8302 120.458 25.6231C116.557 20.5392 111.027 17.0214 106.419 15.2335C102.159 13.5771 98.2943 13.1993 96.0844 14.2194C94.4162 14.9842 93.5546 15.9645 93.521 17.1254C93.5144 17.5267 93.6008 17.924 93.7735 18.2863C90.5917 17.1269 86.0908 15.9462 83.1217 17.1132C82.492 17.3447 81.9207 17.7111 81.4477 18.1867C80.9747 18.6623 80.6116 19.2355 80.3838 19.8662C79.6507 21.8163 79.6523 24.7406 83.5977 27.8071C83.1389 28.6725 83.0028 29.6726 83.2136 30.629C83.5365 32.1034 84.8067 34.1774 89.0292 35.6869C89.1085 35.7166 89.1925 35.7316 89.2771 35.7313C89.4509 35.7321 89.6193 35.6714 89.7525 35.5598C89.8857 35.4482 89.975 35.2931 90.0045 35.122C90.0341 34.9509 90.002 34.7748 89.9139 34.6251C89.8258 34.4754 89.6875 34.3617 89.5235 34.3043C85.9377 33.0165 84.894 31.4243 84.6537 30.3109C84.4333 29.303 84.8297 28.4633 85.1312 28.1696C85.2085 28.0945 85.2684 28.0034 85.3065 27.9026C85.3446 27.8017 85.3601 27.6938 85.3517 27.5863C85.3434 27.4789 85.3115 27.3746 85.2583 27.2809C85.2051 27.1871 85.1319 27.1062 85.0439 27.044C82.0137 24.8905 80.9118 22.6468 81.7612 20.377C81.917 19.9392 82.168 19.5413 82.4961 19.212C82.8243 18.8828 83.2214 18.6303 83.6589 18.4729C87.9686 16.7797 96.7838 21.1357 96.8726 21.18C96.9583 21.2243 97.0519 21.2513 97.1481 21.2594C97.2442 21.2675 97.341 21.2567 97.433 21.2274C97.5249 21.1982 97.6102 21.1511 97.6839 21.0889C97.7577 21.0267 97.8184 20.9506 97.8628 20.8649C97.9071 20.7793 97.9341 20.6857 97.9422 20.5896C97.9504 20.4935 97.9395 20.3968 97.9102 20.3049C97.8809 20.213 97.8338 20.1278 97.7716 20.0541C97.7094 19.9804 97.6332 19.9197 97.5475 19.8754C96.6996 19.4165 94.9611 18.1608 94.9917 17.1591C95.0131 16.4708 95.9329 15.9034 96.7012 15.5485C98.5377 14.7043 102.058 15.108 105.884 16.5962C110.51 18.3933 116.107 22.0059 119.832 27.2443C119.846 26.9536 119.897 26.6659 119.983 26.3878Z" fill="#201000"/>
<path d="M123.823 73.1786C123.646 73.1784 123.474 73.114 123.341 72.9973C123.207 72.8806 123.12 72.7196 123.096 72.5439C121.763 62.8593 120.726 54.5391 120.716 54.4565C120.704 54.356 120.712 54.254 120.741 54.1568C120.769 54.0597 120.818 53.9696 120.883 53.8921C123.663 50.6099 122.619 43.9873 122.608 43.9216C122.581 43.7554 122.612 43.5851 122.696 43.439C122.779 43.2929 122.91 43.1798 123.067 43.1186C127.859 41.245 131.648 37.6997 132.72 34.0826C133.407 31.7685 132.993 29.534 131.495 27.4417C130.424 25.9413 129.063 25.0603 127.464 24.8248C125.344 24.5189 122.72 25.3769 120.433 27.1358C120.278 27.2449 120.087 27.29 119.899 27.2616C119.712 27.2333 119.543 27.1337 119.427 26.9836C119.311 26.8335 119.257 26.6445 119.278 26.456C119.298 26.2675 119.39 26.0941 119.535 25.9718C120.781 25.0129 124.064 22.841 127.68 23.3718C129.686 23.6685 131.373 24.7483 132.689 26.5836C134.443 29.0308 134.94 31.767 134.131 34.4986C132.975 38.3926 129.08 42.181 124.14 44.2672C124.345 46.0368 124.705 51.344 122.216 54.5819C122.417 56.1756 123.369 63.7174 124.555 72.3435C124.581 72.5363 124.53 72.7316 124.412 72.8867C124.294 73.0418 124.12 73.144 123.927 73.171C123.893 73.1759 123.858 73.1785 123.823 73.1786Z" fill="#201000"/>
<path d="M124.552 72.3466C124.552 72.3384 124.552 72.3302 124.552 72.3221C124.552 72.3053 124.552 72.29 124.541 72.2731C124.517 72.1773 124.474 72.0873 124.415 72.0084C124.355 71.9296 124.281 71.8636 124.195 71.8143C124.168 71.7984 124.14 71.7846 124.111 71.773C124.096 71.766 124.081 71.7598 124.065 71.7547C123.967 71.7208 123.862 71.7077 123.759 71.7164H123.721C123.585 71.7347 123.458 71.7904 123.352 71.8771C123.247 71.9638 123.168 72.0782 123.124 72.2074C123.105 72.2609 123.087 72.3144 123.067 72.3603C121.783 75.8245 117.469 78.6571 113.732 78.4552C111.92 78.3573 109.599 77.4962 108.796 73.9494L106.869 65.0464L106.744 64.4698C106.723 64.3732 106.682 64.2819 106.625 64.2012C106.568 64.1205 106.495 64.0521 106.411 64.0001C106.327 63.9482 106.233 63.9137 106.136 63.8987C106.038 63.8838 105.938 63.8887 105.842 63.9131L105.781 63.9284C103.224 64.5815 101.044 64.8461 99.0839 64.2435H99.0686C97.803 63.8504 96.6291 63.0933 95.5043 61.8453C94.5018 60.7318 93.7596 58.921 93.1688 56.6635C92.9928 55.9921 92.8306 55.287 92.6791 54.5391C92.8409 54.49 92.9805 54.3862 93.074 54.2454C94.8232 51.6224 97.8443 49.1982 107.001 51.1299C111.078 51.9864 114.11 52.4483 115.992 50.5533C118.571 47.9532 118.288 41.3123 114.974 26.0192C114.951 25.9121 114.903 25.8115 114.836 25.725C114.768 25.6384 114.682 25.5681 114.584 25.5191C114.431 25.4457 110.96 23.7358 105.356 23.3305C96.8939 22.7187 91.1012 26.1278 89.4576 32.6831C89.3331 33.1717 89.234 33.6663 89.1607 34.1651C89.0872 34.6495 89.0362 35.1516 89.0076 35.6717C89.0028 35.753 89.0147 35.8345 89.0427 35.9111C89.0706 35.9877 89.1139 36.0577 89.17 36.1169C89.2261 36.1761 89.2937 36.2232 89.3687 36.2553C89.4437 36.2873 89.5245 36.3037 89.606 36.3033H89.8846C90.0372 36.3032 90.1841 36.2449 90.2953 36.1404C90.4065 36.0358 90.4736 35.8928 90.483 35.7405C90.5326 34.8285 90.6679 33.9231 90.887 33.0364C92.2429 27.6313 96.6597 24.7207 103.409 24.7207C104.007 24.7207 104.621 24.7421 105.255 24.788C109.625 25.1046 112.673 26.2777 113.62 26.6861C116.664 40.7831 117.048 47.4072 114.954 49.5117C113.597 50.8775 110.808 50.4218 107.302 49.6861C103.963 48.9841 101.347 48.8434 99.2752 49.0743C98.6854 49.1367 98.1005 49.2389 97.5244 49.3802C94.9365 50.0256 93.3923 51.3456 92.3332 52.7312C91.8894 50.1602 91.5344 47.2971 91.1747 44.3682C91.1747 44.3269 91.164 44.2871 91.1594 44.2458C91.1288 44.0087 91.1012 43.7701 91.0722 43.53C90.5078 43.5 89.9659 43.2989 89.5188 42.9534L89.5326 43.0605C89.5662 43.3297 89.5984 43.5973 89.632 43.865L89.7009 44.4248C90.007 46.9086 90.3131 49.3496 90.6651 51.6239C91.4303 56.5335 92.474 60.6722 94.4024 62.8165C97.5872 66.3557 101.148 66.5163 105.458 65.5114L107.166 73.4019L107.177 73.4524L107.226 73.6772L107.351 74.2584C107.397 74.4633 107.449 74.6637 107.504 74.8579C107.724 75.6354 108.059 76.3753 108.499 77.0527C108.941 77.7359 109.513 78.3253 110.182 78.7875C110.852 79.2496 111.606 79.5754 112.402 79.7461C112.809 79.838 113.224 79.8948 113.641 79.9158C113.794 79.925 113.947 79.9281 114.1 79.9281C114.279 79.9281 114.459 79.9281 114.638 79.9113C117.164 79.7583 119.755 78.5577 121.702 76.7789C122.971 75.6196 123.966 74.2156 124.489 72.6983C124.493 72.6889 124.497 72.6792 124.5 72.6693C124.504 72.6562 124.508 72.643 124.512 72.6295C124.512 72.6096 124.523 72.5897 124.527 72.5683C124.528 72.5551 124.528 72.5418 124.527 72.5286C124.529 72.5159 124.529 72.503 124.527 72.4903C124.53 72.4547 124.53 72.4189 124.527 72.3833C124.556 72.3802 124.555 72.3634 124.552 72.3466Z" fill="#201000"/>
<path d="M98.6325 50.1449C98.4584 50.145 98.2901 50.0826 98.1581 49.969C94.2908 46.6868 94.8983 41.7971 97.2521 34.4603C97.3118 34.275 97.4427 34.1209 97.6161 34.0319C97.7894 33.943 97.991 33.9266 98.1765 33.9862C98.362 34.0458 98.5162 34.1767 98.6051 34.3499C98.6941 34.5231 98.7106 34.7246 98.6509 34.91C96.1288 42.7729 96.2482 46.4207 99.11 48.851C99.224 48.9488 99.3054 49.079 99.3431 49.2243C99.3809 49.3696 99.3732 49.523 99.3213 49.6638C99.2693 49.8047 99.1755 49.9262 99.0523 50.0122C98.9292 50.0982 98.7827 50.1445 98.6325 50.1449Z" fill="#201000"/>
<path d="M104.901 40.2967C105.458 40.2967 105.91 39.8455 105.91 39.2888C105.91 38.7322 105.458 38.2809 104.901 38.2809C104.344 38.2809 103.893 38.7322 103.893 39.2888C103.893 39.8455 104.344 40.2967 104.901 40.2967Z" fill="#201000"/>
<path d="M103.959 57.1819C106.014 56.8393 107.197 54.8158 106.421 52.8673C106.038 51.9068 107.506 51.2369 107.89 52.2035C109.055 55.1294 107.335 58.2541 104.208 58.7802C103.186 58.9454 102.933 57.3532 103.959 57.1819Z" fill="#201000"/>
<path d="M101.762 33.8042C101.788 33.5933 101.895 33.4007 102.061 33.267C102.226 33.1332 102.437 33.0687 102.648 33.0869L104 33.1267C104.436 33.1404 104.765 33.6023 104.718 34.0122C104.691 34.223 104.584 34.4153 104.419 34.549C104.254 34.6827 104.043 34.7474 103.831 34.7295L102.48 34.6898C102.044 34.676 101.719 34.2126 101.762 33.8042Z" fill="#201000"/>
<path d="M89.2035 35.401L90.1218 34.9865C91.0676 34.5582 91.7333 36.0265 90.786 36.4548L89.8677 36.8692C88.9204 37.2929 88.2562 35.8246 89.2035 35.401Z" fill="#201000"/>
<path d="M123.811 36.8555H123.78C123.684 36.8517 123.589 36.8289 123.501 36.7885C123.413 36.748 123.334 36.6906 123.269 36.6195C123.203 36.5485 123.152 36.4652 123.119 36.3744C123.086 36.2837 123.071 36.1873 123.075 36.0907C123.159 33.9724 125.447 29.433 128.783 28.6637C128.877 28.6421 128.975 28.6392 129.07 28.6552C129.165 28.6712 129.256 28.7059 129.338 28.7571C129.42 28.8083 129.491 28.875 129.547 28.9536C129.603 29.0322 129.642 29.121 129.664 29.215C129.686 29.309 129.689 29.4064 129.673 29.5015C129.657 29.5966 129.622 29.6876 129.571 29.7693C129.519 29.8511 129.453 29.9219 129.374 29.9778C129.295 30.0337 129.206 30.0736 129.112 30.0952C126.485 30.707 124.601 34.6928 124.544 36.1473C124.537 36.3372 124.457 36.5171 124.32 36.6492C124.184 36.7812 124.001 36.8552 123.811 36.8555Z" fill="#201000"/>
<path d="M106.034 65.3661C105.866 65.3666 105.703 65.3095 105.572 65.2044C105.441 65.0993 105.35 64.9525 105.314 64.7884C105.278 64.6244 105.299 64.453 105.375 64.3029C105.45 64.1528 105.575 64.0331 105.728 63.9636C112.734 60.7884 117.414 57.676 120.902 53.8692C121.033 53.7256 121.217 53.6401 121.412 53.6317C121.606 53.6232 121.796 53.6924 121.94 53.824C122.084 53.9557 122.169 54.1389 122.178 54.3336C122.186 54.5282 122.117 54.7182 121.985 54.8618C118.357 58.82 113.53 62.038 106.335 65.3004C106.24 65.3434 106.138 65.3658 106.034 65.3661Z" fill="#201000"/>
<path d="M123.333 44.5395C123.165 44.5393 123.002 44.4813 122.871 44.3753C122.74 44.2692 122.649 44.1215 122.614 43.9567C121.696 39.6238 119.282 26.8268 119.259 26.6907C119.231 26.5024 119.276 26.3103 119.386 26.1549C119.496 25.9995 119.663 25.893 119.85 25.8578C120.037 25.8227 120.231 25.8617 120.39 25.9666C120.549 26.0715 120.661 26.234 120.703 26.42C120.727 26.5484 123.136 39.3362 124.053 43.6524C124.093 43.8428 124.056 44.0415 123.95 44.2047C123.844 44.3679 123.677 44.4823 123.487 44.5226C123.436 44.5334 123.385 44.5391 123.333 44.5395Z" fill="#201000"/>
<path d="M95.9789 37.6064C95.9182 37.683 95.8735 37.7708 95.8472 37.8648C95.8209 37.9588 95.8136 38.0571 95.8258 38.154C95.9268 39.4183 95.5223 40.6711 94.701 41.6381C94.4149 41.991 94.059 42.2812 93.6555 42.4904C93.2521 42.6996 92.8099 42.8234 92.3564 42.854C91.9201 42.8764 91.4841 42.8035 91.0789 42.6402C90.6737 42.477 90.309 42.2274 90.0102 41.9088C89.2358 41.1089 88.8532 39.9113 88.9604 38.622C88.9765 38.4281 88.9149 38.2358 88.7892 38.0873C88.6636 37.9387 88.484 37.8461 88.29 37.8297C88.1935 37.8197 88.0959 37.8292 88.0031 37.8578C87.9103 37.8865 87.8243 37.9336 87.7502 37.9963C87.6761 38.059 87.6155 38.1361 87.5721 38.2229C87.5286 38.3097 87.5032 38.4043 87.4973 38.5012C87.3534 40.2111 87.8845 41.8262 88.9542 42.9366C89.3721 43.3761 89.8751 43.726 90.4327 43.965C90.9902 44.2041 91.5905 44.3272 92.1972 44.3269C92.2753 44.3269 92.3503 44.3269 92.4298 44.3269C93.0822 44.2834 93.7188 44.1068 94.3002 43.808C94.8817 43.5092 95.3957 43.0944 95.8105 42.5894C96.7316 41.4955 97.2586 40.1243 97.3073 38.6954C96.8543 38.3467 96.4166 37.9796 95.9789 37.6064Z" fill="#201000"/>
<path d="M110.083 37.7135C110.063 37.5196 109.966 37.3417 109.815 37.219C109.663 37.0962 109.469 37.0386 109.275 37.0589C109.081 37.0792 108.903 37.1757 108.78 37.3271C108.657 37.4786 108.6 37.6726 108.62 37.8665C108.747 39.1298 108.355 40.3993 107.575 41.2619C106.865 42.0465 105.891 42.4441 104.698 42.4441C102.763 42.4441 101.513 40.9055 101.513 38.5272C101.512 38.3815 101.468 38.2392 101.386 38.1186C101.305 37.9979 101.189 37.9043 101.054 37.8497C99.3228 37.1293 96.7364 36.932 95.9773 37.6126L96.7854 38.7245C97.8829 38.5501 99.0068 38.6553 100.053 39.0304C100.247 41.9257 102.099 43.9048 104.69 43.9048C106.298 43.9048 107.67 43.3297 108.657 42.2392C109.72 41.0753 110.25 39.3776 110.083 37.7135Z" fill="#201000"/>
<path d="M91.9585 41.6457C92.5155 41.6457 92.967 41.1945 92.967 40.6378C92.967 40.0811 92.5155 39.6299 91.9585 39.6299C91.4015 39.6299 90.95 40.0811 90.95 40.6378C90.95 41.1945 91.4015 41.6457 91.9585 41.6457Z" fill="#201000"/>
<path d="M65.0352 149.804H64.9923C64.896 149.799 64.8017 149.775 64.7148 149.733C64.628 149.691 64.5502 149.632 64.4861 149.56C64.422 149.488 64.3727 149.404 64.3412 149.313C64.3096 149.222 64.2963 149.125 64.3021 149.029C64.3021 148.945 64.8377 140.322 68.7158 109.323L68.9699 107.281C72.6199 77.9566 73.0025 74.8916 108.054 73.382C108.246 73.3768 108.433 73.4476 108.574 73.579C108.715 73.7105 108.799 73.892 108.807 74.0845C108.816 74.277 108.748 74.465 108.618 74.608C108.489 74.7509 108.309 74.8374 108.117 74.8487C74.3065 76.3048 74.0876 78.0606 70.4284 107.463L70.1728 109.505C66.3024 140.456 65.7728 149.032 65.7682 149.118C65.7562 149.304 65.6737 149.478 65.5376 149.606C65.4014 149.733 65.2218 149.804 65.0352 149.804Z" fill="#201000"/>
<path d="M84.3477 102.697L84.5007 90.5748C84.5042 90.3801 84.4301 90.192 84.2948 90.0518C84.1594 89.9117 83.974 89.8311 83.7791 89.8276C83.5843 89.8242 83.3961 89.8982 83.2559 90.0335C83.1157 90.1687 83.035 90.3541 83.0315 90.5488L82.8203 102.937C83.3146 102.642 83.8396 102.945 84.3477 102.697Z" fill="#201000"/>
<path d="M82.5923 116.68L82.3045 133.504C82.3029 133.6 82.3203 133.696 82.3557 133.785C82.3912 133.875 82.4439 133.957 82.511 134.026C82.5781 134.096 82.6582 134.151 82.7467 134.189C82.8352 134.228 82.9304 134.248 83.0269 134.25H83.0391C83.2317 134.25 83.4168 134.175 83.5542 134.04C83.6917 133.905 83.7705 133.722 83.7738 133.53L84.0462 117.654C83.5488 117.354 83.0621 117.03 82.5923 116.68Z" fill="#201000"/>
<path d="M117.455 87.6243C117.321 87.6241 117.189 87.5871 117.074 87.5173C116.959 87.4474 116.865 87.3474 116.803 87.2282L113.478 80.8397L109.753 86.7908C109.649 86.9559 109.485 87.0732 109.295 87.1169C109.105 87.1607 108.905 87.1272 108.74 87.024C108.575 86.9208 108.458 86.7562 108.414 86.5664C108.37 86.3767 108.403 86.1774 108.507 86.0123L112.916 78.9768C112.982 78.8647 113.078 78.7731 113.193 78.7124C113.308 78.6516 113.438 78.624 113.568 78.6327C113.697 78.638 113.823 78.6773 113.932 78.7466C114.042 78.8158 114.131 78.9126 114.191 79.0273L118.11 86.5552C118.167 86.6671 118.195 86.7918 118.19 86.9174C118.186 87.043 118.149 87.1653 118.084 87.2726C118.018 87.38 117.926 87.4688 117.817 87.5307C117.708 87.5925 117.584 87.6253 117.458 87.6259L117.455 87.6243Z" fill="#201000"/>
<path d="M110.365 101.432C110.386 101.59 110.458 101.736 110.569 101.849C110.681 101.962 110.826 102.036 110.983 102.06C111.14 102.084 111.3 102.056 111.44 101.981C111.58 101.906 111.692 101.787 111.759 101.643L125.165 72.9232C125.012 72.3497 124.607 72.2916 124.432 71.7241C124.317 71.7453 124.209 71.7937 124.116 71.8653C124.024 71.9369 123.949 72.0295 123.9 72.1355L111.484 98.7573L108.147 74.3058C108.121 74.1128 108.019 73.938 107.864 73.82C107.709 73.7019 107.513 73.6503 107.32 73.6765C107.127 73.7026 106.952 73.8044 106.834 73.9595C106.716 74.1145 106.664 74.3101 106.69 74.5031L110.365 101.432Z" fill="#201000"/>
<path d="M77.583 113.709C76.423 114.8 74.565 117.462 72.8127 116.531L70.7405 119.062C70.4931 119.363 70.3755 119.75 70.4135 120.138C70.4515 120.525 70.6421 120.882 70.9433 121.129C71.2444 121.377 71.6316 121.494 72.0195 121.456C72.4073 121.418 72.7643 121.228 73.0116 120.927L81.4948 110.615C80.0363 111.374 78.7676 112.6 77.583 113.709Z" fill="#201000"/>
<path d="M93.683 93.4867C93.5339 93.3641 93.3621 93.272 93.1774 93.2158C92.9927 93.1596 92.7987 93.1403 92.6066 93.159C92.4144 93.1778 92.2278 93.2342 92.0575 93.3251C91.8872 93.416 91.7364 93.5395 91.6139 93.6886L84.3474 102.391C85.9391 101.865 86.9032 102.252 88.5561 102.009L93.8804 95.553C94.0034 95.4045 94.0958 95.2331 94.1524 95.0488C94.209 94.8645 94.2287 94.6709 94.2104 94.479C94.192 94.2871 94.136 94.1006 94.0455 93.9304C93.955 93.7601 93.8319 93.6094 93.683 93.4867Z" fill="#201000"/>
<path d="M144.155 129.729C144.001 129.729 143.851 129.681 143.726 129.591C136.67 124.519 126.166 117.967 120.524 114.457C92.6118 97.0656 82.664 104.532 82.286 104.743C77.3887 107.466 73.1892 113.581 73.2565 115.832C73.2672 116.176 73.3759 116.23 73.4172 116.25C74.1717 116.921 76.7841 113.776 77.4698 112.92C77.6718 112.671 77.8463 112.426 78.0284 112.232C82.4437 107.516 84.6413 108.329 84.8082 108.28C85.203 108.162 83.9282 108.919 84.0429 109.307C84.1577 109.696 84.0429 109.613 83.6603 109.733C83.6236 109.743 80.849 110.539 79.1961 112.536C79.0308 112.736 78.8487 112.964 78.6528 113.208C76.6433 115.707 74.1212 118.22 72.779 117.573C72.4224 117.401 71.8179 116.952 71.7873 115.875C71.7001 112.876 76.4291 106.317 81.5728 103.459C81.8621 103.306 92.5368 95.2853 121.275 113.194C126.959 116.736 137.498 123.299 144.586 128.398C144.713 128.489 144.807 128.617 144.856 128.765C144.905 128.913 144.905 129.072 144.857 129.22C144.809 129.368 144.716 129.497 144.59 129.589C144.464 129.68 144.312 129.729 144.156 129.729H144.155Z" fill="#201000"/>
<path d="M83.4461 117.693C83.3815 117.694 83.3172 117.685 83.2548 117.669C80.6531 116.973 79.9261 115.691 79.7807 114.739C79.4517 112.597 81.6892 109.927 86.2529 107.033C86.4174 106.939 86.6118 106.912 86.7956 106.958C86.9795 107.004 87.1386 107.119 87.24 107.278C87.3413 107.438 87.377 107.631 87.3397 107.817C87.3023 108.003 87.1948 108.167 87.0395 108.275C81.3203 111.901 81.1489 113.969 81.2331 114.517C81.3861 115.457 82.6181 115.979 83.6343 116.25C83.8068 116.295 83.9567 116.402 84.0562 116.55C84.1556 116.698 84.1977 116.877 84.1747 117.054C84.1516 117.231 84.065 117.393 83.9309 117.511C83.7968 117.629 83.6245 117.694 83.4461 117.693Z" fill="#201000"/>
<path d="M86.7304 120.758C86.6934 120.758 86.6566 120.755 86.6202 120.749C84.8464 120.482 83.6619 119.526 83.3696 118.149C82.863 115.739 85.128 112.672 89.4285 109.947C89.51 109.895 89.6009 109.86 89.6959 109.844C89.791 109.827 89.8884 109.829 89.9825 109.85C90.0767 109.872 90.1657 109.911 90.2446 109.966C90.3235 110.022 90.3907 110.092 90.4424 110.174C90.494 110.255 90.5291 110.346 90.5457 110.441C90.5622 110.536 90.5598 110.633 90.5387 110.728C90.5176 110.822 90.4782 110.911 90.4227 110.989C90.3671 111.068 90.2966 111.135 90.2151 111.187C85.7769 113.998 84.5312 116.54 84.8082 117.846C85.0255 118.879 86.1748 119.201 86.8406 119.302C87.0247 119.329 87.1918 119.425 87.3081 119.57C87.4245 119.715 87.4814 119.899 87.4674 120.084C87.4534 120.27 87.3696 120.443 87.2328 120.569C87.096 120.695 86.9164 120.764 86.7304 120.763V120.758Z" fill="#201000"/>
<path d="M91.1029 124.203C90.6293 124.195 90.1659 124.065 89.7576 123.825C87.8293 122.754 86.8728 121.543 86.833 120.137C86.7779 118.174 88.619 116.034 92.4619 113.599C92.5434 113.547 92.6342 113.512 92.7293 113.496C92.8243 113.479 92.9217 113.482 93.0159 113.503C93.11 113.524 93.1991 113.563 93.278 113.619C93.3569 113.674 93.4241 113.745 93.4758 113.826C93.5274 113.908 93.5625 113.998 93.579 114.093C93.5956 114.188 93.5932 114.286 93.5721 114.38C93.551 114.474 93.5116 114.563 93.456 114.642C93.4005 114.721 93.33 114.788 93.2485 114.839C89.1164 117.461 88.2762 119.145 88.3022 120.096C88.3267 120.94 89.0368 121.74 90.4739 122.543C90.9881 122.831 91.2804 122.722 91.3768 122.687C91.9216 122.487 92.3073 121.728 92.4098 121.453C92.4846 121.281 92.622 121.145 92.794 121.071C92.9661 120.998 93.1597 120.992 93.3355 121.057C93.5113 121.121 93.6559 121.25 93.7398 121.417C93.8238 121.584 93.8407 121.777 93.7872 121.956C93.7275 122.123 93.1628 123.589 91.891 124.062C91.6389 124.156 91.3719 124.204 91.1029 124.203Z" fill="#201000"/>
<path d="M155.648 78.5775C150.463 73.3773 141.163 71.3233 124.541 71.7118C124.426 71.7151 124.313 71.7455 124.212 71.8005C124.484 72.2593 123.958 72.6769 124.241 73.128L125.032 73.1709C140.915 72.8359 149.779 74.7722 154.607 79.613C160.671 85.6956 160.376 96.6481 159.929 113.226C159.825 117.083 159.718 121.072 159.672 125.449C159.519 140.216 156.917 149.263 151.911 152.334C148.85 154.212 144.909 153.916 139.851 151.426C129.867 146.511 106.961 128.305 101.826 124.061C101.487 123.779 101.158 123.504 100.841 123.238C97.734 120.638 95.2807 118.57 91.5312 120.017C91.4407 120.051 91.358 120.104 91.2878 120.17C91.2175 120.237 91.1611 120.317 91.1217 120.405C91.0824 120.494 91.0608 120.589 91.0583 120.686C91.0559 120.783 91.0725 120.879 91.1072 120.97C91.142 121.06 91.1942 121.143 91.261 121.213C91.3277 121.283 91.4076 121.339 91.4962 121.379C91.5847 121.418 91.6801 121.44 91.777 121.442C91.8739 121.445 91.9703 121.428 92.0607 121.393C94.9991 120.263 96.8433 121.808 99.8949 124.37C100.216 124.639 100.547 124.916 100.89 125.2C101.15 125.416 127.623 147.053 139.202 152.752C142.263 154.255 145.018 155.008 147.467 155.008C149.303 155.035 151.11 154.545 152.681 153.593C158.213 150.191 160.98 140.993 161.141 125.472C161.185 121.107 161.294 117.124 161.396 113.273C161.856 96.307 162.159 85.1083 155.648 78.5775Z" fill="#201000"/>
<path d="M73.9405 112.18C73.7789 112.18 73.6219 112.126 73.4938 112.028C73.3657 111.929 73.2737 111.791 73.2319 111.635C72.9974 110.759 72.9655 109.84 73.1386 108.95C73.3118 108.059 73.6854 107.22 74.2313 106.495C75.6194 104.633 78.0573 103.56 81.083 103.469H81.106C81.2956 103.475 81.4756 103.554 81.6087 103.689C81.7417 103.824 81.8174 104.005 81.8199 104.195C81.8225 104.384 81.7517 104.568 81.6224 104.706C81.4931 104.845 81.3152 104.928 81.1259 104.939C77.8293 105.036 76.1979 106.316 75.4112 107.373C74.9971 107.919 74.7129 108.553 74.5804 109.225C74.4478 109.898 74.4702 110.592 74.646 111.254C74.6712 111.348 74.6778 111.445 74.6654 111.54C74.6529 111.636 74.6217 111.728 74.5735 111.812C74.5253 111.895 74.4611 111.969 74.3845 112.027C74.3079 112.086 74.2205 112.129 74.1272 112.154C74.0665 112.171 74.0036 112.18 73.9405 112.18Z" fill="#201000"/>
<path d="M139.99 126.547C139.796 126.547 139.609 126.47 139.471 126.332C139.333 126.195 139.256 126.008 139.256 125.813V99.1304C139.256 99.034 139.275 98.9385 139.312 98.8494C139.349 98.7604 139.403 98.6794 139.471 98.6113C139.539 98.5431 139.62 98.489 139.709 98.4521C139.798 98.4152 139.894 98.3962 139.99 98.3962C140.087 98.3962 140.182 98.4152 140.272 98.4521C140.361 98.489 140.442 98.5431 140.51 98.6113C140.578 98.6794 140.632 98.7604 140.669 98.8494C140.706 98.9385 140.725 99.034 140.725 99.1304V125.813C140.725 125.91 140.706 126.005 140.67 126.094C140.633 126.184 140.579 126.265 140.51 126.333C140.442 126.401 140.361 126.455 140.272 126.492C140.183 126.529 140.087 126.548 139.99 126.547Z" fill="#201000"/>
<path d="M105.698 128.75C105.537 128.75 105.381 128.698 105.252 128.601C105.124 128.504 105.031 128.367 104.988 128.212C104.945 128.057 104.954 127.893 105.014 127.743C105.073 127.594 105.181 127.468 105.319 127.386C107.768 125.914 113.315 119.703 113.782 110.841C113.785 110.744 113.808 110.649 113.849 110.561C113.89 110.473 113.948 110.395 114.021 110.33C114.093 110.265 114.177 110.215 114.269 110.184C114.361 110.153 114.458 110.14 114.555 110.147C114.748 110.157 114.93 110.243 115.06 110.387C115.19 110.53 115.258 110.719 115.25 110.912C114.752 120.358 108.741 127.04 106.067 128.638C105.956 128.708 105.829 128.746 105.698 128.75Z" fill="#201000"/>
<path d="M85.122 150.782H41.0398L24.3918 101.007H68.4726L69.4061 103.797L69.8377 105.089L70.4835 107.019L72.5282 113.129L72.5619 113.233L72.8664 114.142L73.2873 115.401L73.5566 116.207L73.6883 116.598L73.8918 117.209L74.0112 117.568L80.1925 136.044L80.7267 137.641L85.122 150.782Z" fill="#3527DD"/>
<path d="M41.0397 150.782L38.6201 148.627L36.5464 146.779L18.7307 130.905L2.0813 81.1285L24.3918 101.007L41.0397 150.782Z" fill="#3527DD"/>
<path d="M38.62 148.627L36.5463 146.779L21.2421 100.258C21.212 100.166 21.2002 100.069 21.2074 99.9732C21.2146 99.8771 21.2407 99.7833 21.2842 99.6972C21.3277 99.6111 21.3877 99.5345 21.4608 99.4716C21.534 99.4087 21.6188 99.3608 21.7104 99.3307C21.8021 99.3006 21.8987 99.2888 21.995 99.296C22.0912 99.3032 22.185 99.3293 22.2711 99.3728C22.3572 99.4162 22.434 99.4762 22.4969 99.5493C22.5598 99.6224 22.6077 99.7071 22.6379 99.7987L38.62 148.627Z" fill="white"/>
<path d="M46.0763 150.782H44.5673L28.7933 102.85C28.7423 102.668 28.7636 102.473 28.8529 102.306C28.9421 102.138 29.0924 102.012 29.2724 101.953C29.4525 101.894 29.6484 101.907 29.8194 101.988C29.9904 102.07 30.1233 102.214 30.1905 102.391L46.0335 150.555C46.0593 150.628 46.0738 150.704 46.0763 150.782Z" fill="white"/>
<path d="M26.0767 99.8018C26.0425 99.804 26.0083 99.804 25.9741 99.8018C25.8786 99.7884 25.7865 99.7564 25.7034 99.7075C25.6202 99.6587 25.5474 99.5939 25.4893 99.5169C25.4312 99.4399 25.3888 99.3522 25.3646 99.2589C25.3404 99.1655 25.3348 99.0683 25.3482 98.9728C26.2266 92.647 19.2847 87.9102 14.0736 86.5658C8.06054 85.015 6.45972 80.4067 6.39544 80.2124C6.36045 80.1198 6.34459 80.021 6.34881 79.922C6.35303 79.8231 6.37723 79.726 6.41998 79.6366C6.46272 79.5473 6.52312 79.4675 6.59753 79.4021C6.67194 79.3366 6.75884 79.2869 6.85297 79.256C6.94711 79.225 7.04654 79.2133 7.14529 79.2218C7.24404 79.2302 7.34006 79.2585 7.42757 79.305C7.51508 79.3515 7.59228 79.4152 7.65451 79.4923C7.71673 79.5694 7.76271 79.6583 7.78966 79.7536C7.84476 79.9157 9.23132 83.8067 14.4409 85.1495C20.1784 86.6301 27.8076 91.9618 26.8036 99.1808C26.7766 99.354 26.6884 99.5118 26.5551 99.6257C26.4218 99.7396 26.2521 99.802 26.0767 99.8018Z" fill="#201000"/>
<path d="M28.4658 99.4347C28.3107 99.4353 28.1593 99.3869 28.0334 99.2963C27.9076 99.2058 27.8136 99.0777 27.765 98.9305C27.7164 98.7833 27.7157 98.6245 27.7629 98.4769C27.8102 98.3292 27.903 98.2003 28.0281 98.1086C28.2316 97.9557 33.1489 94.4654 43.4088 95.3999C50.9905 96.0897 62.4687 97.0946 65.4561 97.3561C65.65 97.3732 65.8293 97.4666 65.9544 97.6157C66.0796 97.7649 66.1403 97.9576 66.1233 98.1514C66.1062 98.3454 66.0128 98.5247 65.8636 98.65C65.7145 98.7753 65.5217 98.8364 65.3275 98.8198C62.3386 98.5583 50.8589 97.5519 43.2757 96.8636C33.5636 95.9796 28.9402 99.2618 28.8897 99.2955C28.7664 99.385 28.6181 99.4336 28.4658 99.4347Z" fill="#201000"/>
<path d="M10.0151 112.496C15.0655 115.421 16.2745 116.372 15.4863 117.683C14.6982 118.994 9.48403 117.085 7.65058 114.197C5.81714 111.31 7.00168 109.346 7.00168 109.346L10.0151 112.496Z" fill="white"/>
<path d="M14.4075 118.837C12.2343 118.837 8.56279 117.002 7.03543 114.59C4.98313 111.358 6.31919 109.063 6.37735 108.966C6.47882 108.8 6.64241 108.68 6.83212 108.634C7.02183 108.588 7.22214 108.619 7.38896 108.72C7.55578 108.821 7.67545 108.985 7.72166 109.175C7.76787 109.364 7.73683 109.564 7.63535 109.731C7.60321 109.791 6.73393 111.381 8.2766 113.812C9.39534 115.574 12.0904 117.056 13.904 117.329C14.5391 117.429 14.8222 117.329 14.8742 117.291C15.0059 117.068 14.9783 116.964 14.9661 116.915C14.7702 116.15 12.3399 114.693 9.65092 113.134C9.48227 113.036 9.35939 112.876 9.3093 112.687C9.25922 112.499 9.28604 112.299 9.38386 112.13C9.48168 111.961 9.64249 111.839 9.83091 111.789C10.0193 111.739 10.2199 111.765 10.3886 111.863C14.6171 114.31 16.0772 115.333 16.3894 116.549C16.4511 116.807 16.459 117.075 16.4127 117.335C16.3664 117.596 16.2667 117.845 16.12 118.065C15.9103 118.412 15.4512 118.83 14.4503 118.841L14.4075 118.837Z" fill="#201000"/>
<path d="M9.27274 107.545C15.2414 112.013 16.6341 113.403 15.4373 114.947C14.2405 116.49 7.91066 113.289 6.01753 109.35C4.1244 105.412 5.92111 103.096 5.92111 103.096L9.27274 107.545Z" fill="white"/>
<path d="M14.3799 116.077C14.2419 116.077 14.1039 116.069 13.9667 116.054C11.267 115.768 6.91605 112.917 5.35502 109.668C3.28895 105.371 5.25707 102.755 5.34125 102.647C5.46078 102.493 5.63661 102.392 5.83005 102.368C6.0235 102.344 6.21871 102.397 6.37275 102.517C6.52679 102.636 6.62703 102.812 6.65142 103.005C6.67582 103.198 6.62237 103.394 6.50284 103.547C6.44621 103.622 5.02751 105.594 6.68037 109.034C8.08223 111.949 12.0981 114.387 14.1228 114.595C14.6064 114.644 14.813 114.553 14.8559 114.497C15.0962 114.191 15.1084 114.003 15.09 113.862C14.9446 112.792 12.17 110.632 8.83214 108.134C8.67607 108.017 8.57284 107.843 8.54514 107.651C8.51744 107.458 8.56756 107.262 8.68445 107.106C8.80135 106.95 8.97546 106.847 9.16847 106.819C9.36149 106.791 9.55759 106.841 9.71366 106.958C14.5789 110.601 16.3435 112.158 16.5455 113.666C16.6281 114.267 16.4552 114.833 16.0175 115.396C15.768 115.72 15.2844 116.077 14.3799 116.077Z" fill="#201000"/>
<path d="M8.75714 103.592C15.0594 108.394 16.5302 109.886 15.2431 111.516C13.956 113.146 7.25733 109.681 5.28002 105.482C3.30272 101.284 5.23411 98.8322 5.23411 98.8322L8.75714 103.592Z" fill="white"/>
<path d="M14.1396 112.663C13.9861 112.662 13.8329 112.652 13.6805 112.634C10.8247 112.307 6.24413 109.248 4.62035 105.794C2.47776 101.232 4.57138 98.491 4.66168 98.3763C4.78345 98.2234 4.96101 98.1251 5.15532 98.103C5.34962 98.0809 5.54475 98.1369 5.69777 98.2585C5.85079 98.3802 5.94917 98.5577 5.97127 98.7519C5.99337 98.9461 5.93738 99.1411 5.81561 99.294C5.75287 99.3766 4.2102 101.478 5.95029 105.178C7.42103 108.304 11.6878 110.935 13.8473 111.182C14.314 111.238 14.5956 111.163 14.6706 111.069C14.9385 110.73 14.9538 110.522 14.9339 110.363C14.7808 109.197 11.9756 106.972 8.31633 104.184C8.15965 104.066 8.05615 103.891 8.0286 103.697C8.00104 103.503 8.05169 103.306 8.1694 103.15C8.28711 102.993 8.46224 102.89 8.65626 102.862C8.85028 102.835 9.04729 102.885 9.20397 103.003C14.3324 106.912 16.1888 108.581 16.3893 110.165C16.4689 110.792 16.2837 111.389 15.8215 111.966C15.5598 112.301 15.064 112.663 14.1396 112.663Z" fill="#201000"/>
<path d="M7.52041 97.4969C13.2151 103.003 15.9714 105.678 14.5022 107.146C13.033 108.615 6.78581 104.393 5.31967 99.9869C3.85352 95.5805 6.05427 93.3766 6.05427 93.3766L7.52041 97.4969Z" fill="white"/>
<path d="M13.6421 108.177C13.3636 108.175 13.0862 108.14 12.8157 108.073C10.0181 107.414 5.82779 103.838 4.62029 100.218C3.02559 95.4368 5.42988 92.9606 5.53854 92.8566C5.60678 92.7884 5.68778 92.7343 5.77693 92.6974C5.86608 92.6605 5.96163 92.6415 6.05813 92.6415C6.15462 92.6415 6.25017 92.6605 6.33932 92.6974C6.42847 92.7343 6.50947 92.7884 6.5777 92.8566C6.64593 92.9247 6.70006 93.0057 6.73698 93.0948C6.77391 93.1839 6.79292 93.2794 6.79292 93.3758C6.79292 93.4722 6.77391 93.5677 6.73698 93.6568C6.70006 93.7459 6.64593 93.8269 6.5777 93.8951C6.50577 93.97 4.72742 95.8834 6.02063 99.7544C7.11488 103.031 11.0435 106.145 13.1585 106.637C13.6176 106.744 13.9054 106.707 13.9895 106.622C14.2956 106.316 14.3354 106.111 14.3339 105.95C14.3247 104.777 11.7934 102.238 8.48767 99.0386C8.41543 98.9723 8.3572 98.8923 8.31642 98.8032C8.27563 98.7141 8.25312 98.6177 8.25019 98.5197C8.24727 98.4218 8.264 98.3242 8.2994 98.2328C8.33479 98.1414 8.38814 98.058 8.4563 97.9876C8.52445 97.9171 8.60603 97.861 8.69623 97.8226C8.78642 97.7841 8.88342 97.7641 8.98148 97.7637C9.07954 97.7633 9.17669 97.7825 9.26719 97.8202C9.3577 97.858 9.43973 97.9134 9.50846 97.9833C14.1441 102.465 15.7908 104.341 15.8046 105.937C15.8046 106.568 15.5567 107.131 15.0287 107.659C14.767 107.92 14.3369 108.177 13.6421 108.177Z" fill="#201000"/>
</g>
<defs>
<clipPath id="clip0_106_1872">
<rect width="176" height="155" fill="white"/>
</clipPath>
</defs>
</svg>
